<svg xmlns="http://www.w3.org/2000/svg" viewBox="0 0 49.2 49.2" enable-background="new 0 0 49.2 49.2"><path d="M113.7 24.7l.6-.2-1.2-2.6c-7.9 2.4-15.4 2.2-15.7 2.2v.5c0 3.9 1.5 7.5 3.9 10.2s4.2-7.4 12.4-10.1zM111.8 19.6c-2.6-4.7-5.5-8.5-5.7-8.8-4.3 2-7.4 5.9-8.4 10.7.4 0 6.8.1 14.1-1.9zM122.7 13.2c-2.7-2.4-6.2-3.8-10.1-3.8-1.2 0-2.4.2-3.6.4.2.3 3.1 4.1 5.7 8.9 5.8-2.2 8-5.5 8-5.5zM109 9.8zM103.3 36.7l-.3-.3c.1.2.3.3.3.3zM115.9 21c.4.7.7 1.5 1 2.2l.3.8c5.2-.7 10.4.5 10.6.5 0-3.6-1.3-6.9-3.5-9.5.1 0-2.3 3.5-8.4 6zM115.2 27.1c-9 3.1-11.9 9.5-12 9.5 2.6 2 5.8 3.2 9.4 3.2 2.1 0 4.1-.4 6-1.2-.2-1.3-1.1-6-3.3-11.6 0 .1 0 .1-.1.1zM112.6 0c-13.6 0-24.6 11-24.6 24.6 0 13.6 11 24.6 24.6 24.6s24.6-11 24.6-24.6c.1-13.6-11-24.6-24.6-24.6zm16.5 31.6c-.4 1.1-1 2.1-1.6 3-.6.9-1.4 1.8-2.2 2.6-.8.8-1.7 1.5-2.6 2.2-1 .6-2 1.2-3 1.6-1.1.5-2.2.8-3.4 1-1.2.2-2.4.4-3.6.4-1.2 0-2.4-.1-3.6-.4-1.1-.2-2.3-.6-3.4-1s-2.1-1-3-1.6c-.9-.6-1.8-1.4-2.6-2.2-.8-.8-1.5-1.7-2.2-2.6-.6-1-1.2-2-1.6-3-.5-1.1-.8-2.2-1-3.4-.2-1.2-.4-2.4-.4-3.6 0-1.2.1-2.4.4-3.6.2-1.2.6-2.3 1-3.4s1-2.1 1.6-3c.6-.9 1.4-1.8 2.2-2.6.8-.8 1.7-1.5 2.6-2.2 1-.6 2-1.2 3-1.7 1.1-.5 2.2-.8 3.4-1 1.2-.2 2.4-.4 3.6-.4 1.2 0 2.4.1 3.6.4 1.1.2 2.3.6 3.4 1s2.1 1 3 1.7c.9.6 1.8 1.4 2.6 2.2.8.8 1.5 1.7 2.2 2.6.6 1 1.2 2 1.6 3 .5 1.1.8 2.2 1 3.4.2 1.2.4 2.4.4 3.6 0 1.2-.1 2.4-.4 3.6-.2 1.2-.5 2.3-1 3.4zM118.2 26.4c2 5.5 2.8 10 3 10.9 3.4-2.3 5.9-6 6.5-10.2-.3-.2-4.6-1.5-9.5-.7zM24.6 0c-13.6 0-24.6 11-24.6 24.6 0 13.6 11 24.6 24.6 24.6 13.6 0 24.6-11 24.6-24.6 0-13.6-11-24.6-24.6-24.6zm6.5 24.5h-4.3v15.2h-6.3v-15.2h-3v-5.4h3v-3.5c0-2.5 1.2-6.4 6.4-6.4h4.7v5.2h-3.4c-.6 0-1.3.3-1.3 1.5v3.2h4.8l-.6 5.4zM-151.4 0c-13.6 0-24.6 11-24.6 24.6 0 13.6 11 24.6 24.6 24.6 13.6 0 24.6-11 24.6-24.6 0-13.6-11-24.6-24.6-24.6zm13.7 36.6c0 1.1-.9 2-2 2h-23.4c-1.1 0-2-.9-2-2v-23.7c0-1.1.9-2 2-2h23.4c1.1 0 2 .9 2 2v23.7zM-146.7 21.3c-2.2 0-3.2 1.2-3.7 2.1v-1.8h-4.1c.1 1.2 0 12.5 0 12.5h4.1v-7c0-.4 0-.7.1-1 .3-.7 1-1.5 2.1-1.5 1.5 0 2.1 1.1 2.1 2.8v6.7h4.2v-7.2c0-3.8-2-5.6-4.8-5.6zM-158.9 15.6c-1.4 0-2.3.9-2.3 2.2 0 1.2.9 2.2 2.3 2.2s2.3-1 2.3-2.2c0-1.3-.9-2.2-2.3-2.2zM-161 21.6h4.2v12.5h-4.2zM-53.7 22.2c-3.2 0-3.6 3.2-3.6 3.2h6.7c0-.1.1-3.2-3.1-3.2zM-69 25.3h-6v5.5h5.7c.9 0 2.5-.3 2.5-2.7-.1-2.8-2.2-2.8-2.2-2.8zM-63.4 0c-13.6 0-24.6 11-24.6 24.6s11 24.6 24.6 24.6c13.6 0 24.6-11 24.6-24.6s-11-24.6-24.6-24.6zm5.2 15.1h8.5v2.5h-8.5v-2.5zm-4.3 13.3c0 6.3-6.5 6.1-6.5 6.1h-10.7v-20.6h10.7c3.2 0 5.8 1.8 5.8 5.5s-3.1 3.9-3.1 3.9c4.1 0 3.8 5.1 3.8 5.1zm15.9-.3h-10.6c0 3.8 3.6 3.6 3.6 3.6 3.4 0 3.3-2.2 3.3-2.2h3.6c0 5.9-7 5.5-7 5.5-8.4 0-7.9-7.9-7.9-7.9s0-7.9 7.9-7.9c8.2-.1 7.1 8.9 7.1 8.9zM-67.6 19.7c0-2.1-1.5-2.1-1.5-2.1h-5.8999999999999995v4.6h5.6c1 0 1.8-.4 1.8-2.5zM218.4 41.7l-1.8 1.6c.6-.5 1.2-1 1.8-1.6zM225.2 20h-14.5c1.2 3 1.2 5.9 0 8.7-2.4 5.7-8.8 8.3-14.6 6-5.5-2.3-8.2-8.8-5.9-14.5v-.2h-14.100000000000001c-.2 2-.3 2.8-.3 4.1 0 5 1.5 9.8 4 13.7 1.5 2.3 3.4 4.4 5.6 6.1 4.2 3.3 9.5 5.2 15.2 5.2 6.1 0 11.6-2.2 15.9-5.7l1.8-1.6.1-.1c4.4-4.5 7.1-10.8 7.1-17.5 0-1.4-.1-2.2-.3-4.2zM192.6 16c.1 0 .3.1.4 0 4.4-3.8 10.2-3.6 14.7.2.3.2.5.8.9.8h15.8c-1.2-4-3.2-7.1-5.8-9.8l-2.1-2c-4.3-3.6-9.8-5.7-15.8-5.7-5.7 0-11 1.9-15.2 5.2-2.2 1.7-4.1 3.5-5.6 5.8-1.2 1.8-2.1 3.5-2.8 5.5h15.5zm22-2.9c0 .8-.4 1.2-1.2 1.3h-5.1c-.8 0-1.2-.5-1.2-1.2v-4.9c0-.8.4-1.3 1.2-1.3h5c.8 0 1.2.4 1.2 1.2.1 1.6.1 3.2.1 4.9zM200.5 15.7c-4.9-.1-9 4-9 8.9 0 4.8 4 8.8 8.8 8.8 5 0 8.9-3.9 8.9-8.8.1-4.9-3.8-8.9-8.7-8.9z"/></svg>