<svg xmlns="http://www.w3.org/2000/svg" xmlns:xlink="http://www.w3.org/1999/xlink" width="1207.66" height="275.523" viewBox="0 0 1207.66 275.523"><defs><path id="a" d="M0 0h1207.664v275.523h-1207.664z"/></defs><clipPath id="b"><use xlink:href="#a" overflow="visible"/></clipPath><path clip-path="url(#b)" fill="#fff" d="M29.176 123.86c-.001-22.8-4.516-92.611 33.167-92.89 15.787-.116 21.291 12.615 25.27 25.648.346 1.132.161 2.365-.484 3.357-2.059 3.165-3.647 5.724-5.331 8.597-1.743 2.974-6.213 2.527-7.279-.752-2.384-7.333-5.855-14.535-12.165-14.826-18.506-.851-19.526 55.597-19.525 69.852.002 12.075-1.408 68.66 19.563 67.032 5.069-.393 10.427-7.453 13.045-14.643.16-.438.233-.893.233-1.357-.003-7.917-.005-20.463-.007-30.289-.001-2.385-2.066-4.243-4.439-3.996-2.665.278-4.922.512-7.588.789-2.372.246-4.436-1.62-4.436-4.005-.003-9.48-.006-13.711-.008-23.447-.001-2.123 1.649-3.881 3.767-4.015 7.23-.456 14.46-.914 21.689-1.374 2.316-.148 4.275 1.689 4.276 4.01.011 24.676.02 49.354.035 74.029 0 .565-.119 1.131-.349 1.647-5.574 12.499-11.63 22.7-26.207 24.92-37.863 5.767-33.226-68.129-33.227-88.287M99.538 200.799c-.066-54.978-.033-109.959-.101-164.939-.003-2.08 1.682-3.768 3.763-3.768 12.191 0 24.383 0 36.574-.001 2.077 0 3.761 1.679 3.765 3.756.007 3.686.012 7.887.019 14.722.002 2.059-1.65 3.745-3.708 3.776-7.805.118-15.61.235-23.416.351-2.058.031-3.709 1.708-3.708 3.767.009 10.982.015 21.964.022 32.946.001 2.158 1.813 3.874 3.968 3.758 7.421-.4 14.841-.802 22.261-1.205 2.155-.117 3.967 1.597 3.968 3.756.009 10.73.017 21.46.025 32.19.001 1.942-1.473 3.566-3.405 3.752-7.794.751-15.588 1.499-23.383 2.244-1.932.184-3.407 1.807-3.405 3.75.007 12.085.014 24.17.023 36.256.002 2.282 2.02 4.041 4.283 3.729 7.435-1.026 14.87-2.057 22.304-3.09 2.261-.315 4.279 1.443 4.281 3.726.007 6.905.013 11.1.02 14.896.003 1.861-1.354 3.446-3.194 3.729-12.204 1.883-24.41 3.758-36.617 5.623-2.28.347-4.336-1.418-4.339-3.724M168.464 190.487c-.093-44.345-.091-88.688-.138-133.031-.002-1.949-1.602-3.519-3.55-3.489l-11.131.17c-1.948.029-3.547-1.548-3.549-3.497-.008-7.039-.013-11.287-.02-15.052-.004-1.931 1.561-3.496 3.493-3.496l42.72-.003c1.926 0 3.489 1.556 3.493 3.482.009 3.667.016 7.732.025 14.402.003 1.91-1.53 3.475-3.44 3.505l-11.239.175c-1.909.029-3.441 1.586-3.439 3.495.05 44.111.049 88.221.148 132.332.004 1.723-1.252 3.19-2.955 3.457-2.305.36-4.19.654-6.381.995-2.116.329-4.032-1.305-4.037-3.445M229.311 108.5c-.053-22.348-1.504-77.326 33.051-77.529 14.802-.087 22.765 12.204 25.821 25.393.203.876-.034 1.8-.612 2.49-2.752 3.286-4.685 5.712-7.028 8.82-1.425 1.89-4.382 1.36-5.086-.9-2.403-7.724-5.833-16.152-13.05-16.42-17.748-.659-19.499 43.46-19.452 57.066.042 12.427 2.306 57.072 19.608 54.036 7.519-1.319 10.796-10.666 13.189-19.117.627-2.214 3.457-2.85 4.972-1.12 2.266 2.586 4.159 4.622 6.795 7.306.685.696.989 1.698.773 2.651-3.134 13.821-10.767 27.284-25.684 29.772-34.721 5.791-33.25-52.562-33.297-72.448M293.504 103.391c-.031-21.622-.753-72.449 32.386-72.42 31.836.028 32.7 45.637 32.734 67.175.037 23.954-1.049 67.025-32.478 72.601-33.441 5.932-32.614-47.849-32.642-67.356m51.48-4.142c-.019-13.129-1.544-50.095-19.047-49.793-17.94.31-18.814 39.271-18.792 52.84.019 11.841 1.334 52.545 18.954 49.87 17.65-2.68 18.907-38.079 18.885-52.917M410.106 153.291c-7.416-19.4-15.57-40.563-22.549-61.037-1.19-3.49-6.342-2.635-6.337 1.052.029 21.503.056 43.006.119 64.509.005 1.601-1.153 2.966-2.733 3.222l-6.751 1.097c-1.978.32-3.777-1.203-3.783-3.207-.119-41.198-.1-82.396-.222-123.595-.005-1.801 1.452-3.264 3.253-3.264l8.126-.001c1.357 0 2.567.834 3.044 2.104 2.969 7.901 13.683 36.529 21.866 59.956 1.209 3.464 6.334 2.586 6.329-1.082-.027-19.24-.053-38.48-.108-57.72-.006-1.801 1.456-3.264 3.258-3.264l6.747-.001c1.795 0 3.256 1.443 3.262 3.238.104 36.788.195 101.501.215 115.611.002 1.599-1.149 2.955-2.726 3.212l-7.45 1.215c-1.523.247-3.007-.603-3.56-2.045M478.134 142.459c-8.081-17.873-15.884-36.968-22.735-55.684-1.208-3.3-6.088-2.432-6.083 1.081.027 19.657.053 39.313.107 58.969.005 1.542-1.113 2.857-2.633 3.105-2.55.417-4.56.745-6.983 1.14-1.907.312-3.643-1.157-3.648-3.091-.103-37.592-.099-75.185-.204-112.778-.005-1.737 1.399-3.146 3.135-3.146l8.402-.002c1.272 0 2.409.76 2.894 1.935 3.002 7.283 13.856 33.711 22.106 55.13 1.252 3.249 6.072 2.346 6.067-1.136-.024-17.596-.048-35.193-.095-52.79-.004-1.735 1.405-3.145 3.141-3.145l6.982-.001c1.731-.001 3.14 1.392 3.144 3.123.085 33.324.167 91.603.185 104.714.002 1.539-1.106 2.851-2.625 3.099l-7.789 1.275c-1.401.23-2.783-.504-3.368-1.798M504.232 136.867c-.082-33.897-.09-67.795-.173-101.693-.005-1.728 1.394-3.13 3.122-3.13 12.617-.003 25.233-.005 37.85-.007 1.723-.001 3.121 1.396 3.125 3.119.007 2.831.012 5.505.018 9.43.003 1.707-1.365 3.107-3.072 3.136l-24.673.417c-1.707.028-3.075 1.426-3.072 3.133.011 6.074.018 10.72.029 17.879.002 1.795 1.513 3.224 3.306 3.12l23.567-1.368c1.792-.104 3.304 1.327 3.306 3.122l.022 16.002c.003 1.605-1.212 2.951-2.808 3.114-8.181.831-16.361 1.663-24.541 2.495-1.597.162-2.811 1.511-2.809 3.116.012 8.026.02 13.14.031 19.745.003 1.903 1.694 3.368 3.578 3.092 7.891-1.157 15.781-2.313 23.672-3.468 1.884-.276 3.575 1.187 3.578 3.091.007 3.879.012 6.54.018 9.451.004 1.533-1.106 2.845-2.62 3.092l-37.823 6.19c-1.899.311-3.626-1.153-3.631-3.078M555.605 82.089c-.033-20.793 5.421-50.875 33.085-51.118 11.537-.101 20.917 6.873 25.324 17.223.485 1.141.133 2.471-.857 3.218-2.604 1.967-4.507 3.461-6.915 5.434-1.369 1.121-3.402.63-4.163-.968-2.965-6.23-7.929-10.418-13.363-10.26-16.995.495-19.496 23.854-19.475 35.357.019 10.378 2.392 34.671 19.565 32.198 5.624-.81 10.635-5.877 13.541-12.902.642-1.552 2.531-2.143 3.944-1.236 2.311 1.485 4.154 2.613 6.597 4.037 1.155.673 1.648 2.096 1.15 3.336-4.401 10.962-13.27 19.495-25.207 21.454-27.823 4.567-33.194-25.975-33.226-45.773M637.184 115.206c-.032-21.971-.051-43.942-.075-65.913-.002-1.715-1.412-3.096-3.128-3.068l-11.969.201c-1.715.029-3.125-1.355-3.128-3.07-.004-3.301-.008-5.662-.012-8.253-.003-1.698 1.373-3.079 3.071-3.08l43.559-.007c1.695 0 3.07 1.375 3.072 3.07l.008 7.536c.002 1.678-1.348 3.048-3.024 3.076l-12.065.201c-1.678.028-3.027 1.397-3.026 3.075.023 21.684.04 43.368.069 65.052.002 1.508-1.093 2.794-2.581 3.036l-7.204 1.172c-1.869.304-3.564-1.136-3.567-3.028M677.14 108.678c-.024-24.519-.042-49.038-.068-73.557-.001-1.716 1.39-3.108 3.105-3.108 12.629-.002 25.258-.004 37.887-.005 1.714-.001 3.104 1.392 3.106 3.106l.004 6.604c.001 1.696-1.359 3.083-3.054 3.111-8.239.135-16.478.271-24.716.407-1.695.028-3.055 1.416-3.054 3.113l.009 10.828c.001 1.784 1.501 3.2 3.282 3.098 7.87-.451 15.739-.901 23.608-1.35 1.781-.101 3.281 1.319 3.283 3.103l.005 8.525c.001 1.595-1.208 2.935-2.795 3.094-8.191.821-16.382 1.644-24.571 2.467-1.588.16-2.797 1.503-2.795 3.099l.009 12.063c.002 1.891 1.679 3.342 3.55 3.071 7.906-1.146 15.812-2.291 23.719-3.433 1.872-.271 3.55 1.182 3.551 3.073l.004 6.565c.001 1.524-1.105 2.826-2.61 3.069-12.62 2.036-25.239 4.075-37.858 6.119-1.887.305-3.599-1.151-3.601-3.062M731.568 100.347l-.033-65.625c-.001-1.5 1.218-2.716 2.718-2.717 8.104 0 12.974-.001 21.853-.002 17.982-.23 33.15 12.768 33.074 31.201-.077 18.822-14.876 33.564-33.053 36.388-8.716 1.395-13.563 2.173-21.405 3.434-1.651.266-3.153-1.008-3.154-2.679m44.069-36.066c.159-11.161-7.896-20.548-19.527-20.071l-8.63.14c-1.483.024-2.673 1.233-2.672 2.716l.015 38.797c.001 1.653 1.471 2.922 3.106 2.686l8.194-1.177c11.494-1.701 19.353-11.773 19.514-23.091M409.733 233.557c1.519-2.145 2.648-3.756 4.109-5.878.766-1.113 2.33-1.343 3.358-.466 4.107 3.504 9.856 6.236 16.847 6.174 6.879-.062 10.676-4.055 10.222-7.199-1.874-12.955-34.542-2.853-33.853-24.717.375-11.911 11.306-19.618 22.241-21.052 8.365-1.098 15.574-.035 21.192 3.829 1.011.694 1.264 2.089.601 3.122-1.643 2.557-2.839 4.454-4.441 7.005-.693 1.102-2.174 1.424-3.24.675-4.492-3.152-10.006-4.012-15.243-3.326-5.372.703-9.126 4.768-8.357 7.213 3.141 9.979 33.873 2.781 33.802 25.305-.041 13.081-11.219 20.527-23.526 20.307-10.106-.181-17.916-3.209-23.358-7.929-.889-.772-1.034-2.102-.354-3.063M477.9 240.637l-.02-50.676c-.001-1.74-1.534-3.083-3.26-2.854-3.909.518-6.826.902-10.729 1.416-1.725.227-3.256-1.119-3.258-2.858l-.007-5.845c-.002-1.433 1.05-2.65 2.469-2.854 13.792-1.98 27.579-3.987 41.364-6.021 1.741-.257 3.302 1.096 3.298 2.855l-.013 6.36c-.002 1.44-1.073 2.663-2.5 2.855-4.54.612-7.668 1.032-12.201 1.639-1.43.192-2.503 1.412-2.504 2.854-.007 17.71-.013 35.421-.021 53.131-.001 1.591-1.293 2.88-2.884 2.88l-6.852-.002c-1.59-.001-2.881-1.29-2.882-2.88M549.864 241.465c-.782-2.276-1.377-4.242-2.178-7.083-.374-1.328-1.601-2.245-2.981-2.23-7.89.091-12.767.145-20.683.233-1.325.014-2.498.888-2.89 2.152-.862 2.782-1.497 4.695-2.339 6.983-.443 1.202-1.589 2.005-2.87 2.005l-7.795-.002c-2.105-.001-3.59-2.086-2.876-4.067 8.26-22.923 13.275-46.921 20.939-70.049.362-1.093 1.321-1.889 2.459-2.059 4.372-.655 7.292-1.094 11.544-1.735 1.422-.214 2.816.589 3.319 1.938 8.707 23.354 12.809 48.239 20.132 72.056.601 1.953-.882 3.927-2.925 3.927l-7.965-.001c-1.305 0-2.467-.834-2.891-2.068m-18.152-49.308c-1.83 7.177-3.599 14.37-5.418 21.55-.502 1.982 1.048 3.888 3.091 3.798 3.787-.164 6.753-.295 10.601-.465 1.918-.084 3.286-1.897 2.835-3.764-1.7-7.045-3.391-14.093-5.192-21.112-.785-3.06-5.137-3.068-5.917-.007M580.892 240.711c.129-9.99.216-19.981.308-29.973.003-.362-.065-.721-.2-1.058-5.861-14.612-11.311-29.916-19.823-43.279-1.086-1.705-.074-3.96 1.925-4.265 2.801-.428 5.138-.786 8.307-1.273 1.101-.169 2.214.324 2.799 1.271 4.405 7.123 7.671 14.688 10.791 22.396.954 2.357 4.309 2.304 5.199-.079 3.471-9.284 7.069-18.544 11.847-27.24.417-.759 1.174-1.277 2.029-1.411 2.879-.45 5.059-.791 7.437-1.165 2.289-.359 3.975 2.054 2.88 4.096-8.511 15.883-14.055 33.524-20.416 50.277-.116.305-.176.626-.18.951-.109 10.275-.211 20.551-.367 30.825-.023 1.526-1.273 2.751-2.799 2.751h-6.946c-1.557.001-2.811-1.269-2.791-2.824M641.952 196.654c.323-21.553 7.133-48.149 32.677-53.016 11.307-2.153 20.947 3.916 24.085 14.877.198.696-.02 1.448-.532 1.959-3.103 3.087-5.135 5.172-7.912 8.071-1.033 1.077-2.834.703-3.363-.693-2.645-6.99-7.387-10.948-12.686-10.072-15.706 2.6-19.614 25.281-19.289 37.826.29 11.204 1.461 34.721 17.872 34.8 5.362.026 10.383-4.815 13.298-12.652.497-1.333 2.204-1.723 3.258-.767 2.557 2.318 4.454 4.01 7.258 6.433.612.528.872 1.38.618 2.148-3.688 11.146-12.778 19.128-24.84 18.981-25.961-.317-30.738-28.271-30.444-47.895M703.028 191.659c.405-22.298 5.048-53.202 32.526-58.069 29.769-5.272 29.855 33.858 29.427 52.844-.479 21.163-3.063 58.021-32.605 58.115-27.689.089-29.706-33.215-29.348-52.89m48.98-4.118c.263-10.876-.181-41.053-17.033-38.948-16.339 2.041-18.696 29.374-18.967 41.985-.252 11.789 1.536 39.275 16.949 38.968 16.083-.322 18.743-29.216 19.051-42.005M812.312 242.552c-7.4-22.403-15.737-47.688-22.707-71.272-.459-1.553-2.74-1.252-2.778.366-.555 23.512-.916 47.055-2.179 70.535-.04.753-.672 1.345-1.427 1.345-3.673 0-6.04.001-9.68.002-.811 0-1.461-.677-1.42-1.485 1.918-37.697 1.558-75.485 3.502-113.182.034-.664.524-1.216 1.18-1.329 3.845-.656 8.6-1.471 10.762-1.842.68-.116 1.338.269 1.569.918 2.396 6.73 15.005 42.345 22.058 66.012.461 1.547 2.736 1.239 2.775-.374.565-23.466.928-46.973 2.296-70.399.038-.659.528-1.205 1.178-1.318 3.773-.656 6.167-1.074 9.782-1.706.9-.157 1.718.56 1.665 1.473-2.28 38.924-3.903 110.981-4.14 121.837-.017.771-.639 1.385-1.408 1.385-2.12 0-6.288.001-9.685.002-.611-.001-1.151-.387-1.343-.968M876.537 242.101c-6.901-23.762-14.686-49.716-21.231-74.277-.581-2.181-3.782-1.799-3.835.458-.577 24.467-.965 48.979-2.467 73.395-.063 1.029-.926 1.834-1.957 1.835l-8.619.002c-1.121 0-2.009-.942-1.943-2.062 2.416-41.104 1.712-82.355 4.174-123.458.055-.903.719-1.651 1.61-1.808 3.47-.611 7.565-1.334 9.806-1.73.965-.17 1.896.397 2.191 1.33 2.511 7.933 13.618 43.233 20.506 68.556.591 2.173 3.783 1.784 3.835-.468.564-24.359.941-48.771 2.504-73.072.058-.898.731-1.642 1.616-1.801 3.279-.587 5.53-.991 8.621-1.547 1.245-.224 2.377.772 2.298 2.035-2.638 42.161-4.307 119.061-4.578 132.105-.021 1.062-.88 1.904-1.941 1.905l-8.723.002c-.869 0-1.626-.567-1.867-1.4M900.934 239.269c2.612-43.693 1.665-87.562 4.36-131.251.113-1.831 1.468-3.348 3.272-3.675 11.195-2.033 22.389-4.077 33.58-6.131 2.534-.464 4.834 1.555 4.695 4.127-.152 2.835-.288 6.211-.467 11.157-.068 1.897-1.465 3.489-3.338 3.797-7.554 1.242-15.108 2.479-22.665 3.711-1.877.306-3.278 1.895-3.343 3.796-.29 8.503-.539 17.007-.782 25.512-.068 2.43 2.036 4.357 4.45 4.073 6.45-.757 12.898-1.519 19.347-2.281 2.41-.285 4.513 1.632 4.448 4.06l-.696 26.611c-.054 2.053-1.657 3.729-3.705 3.871-7.094.497-14.187.991-21.28 1.483-2.045.142-3.647 1.812-3.703 3.861-.261 9.429-.534 18.856-.855 28.282-.078 2.283 1.772 4.162 4.057 4.117 6.898-.137 13.799-.275 20.698-.414 2.288-.046 4.144 1.847 4.061 4.134-.189 5.229-.333 8.645-.508 11.617-.124 2.107-1.866 3.753-3.977 3.753-11.227.005-22.454.009-33.681.012-2.295.002-4.106-1.931-3.968-4.222M951.692 169.791c.611-24.855 1.471-73.701 33.668-80.567 14.119-3.011 20.767 8.983 22.92 21.076.263 1.48-.065 3.007-.904 4.255-.975 1.452-1.847 2.766-2.678 4.036-2.565 3.924-8.504 3.343-10.224-1.019-2.642-6.695-6.294-10.162-10.002-9.273-19.242 4.616-19.537 44.773-19.924 60.301-.312 12.496.419 58.095 16.838 56.874 5.559-.413 8.843-6.211 11.126-12.662 1.571-4.441 7.481-5.269 10.196-1.418.577.818 1.178 1.659 1.824 2.556 1.062 1.474 1.374 3.363.841 5.1-3.904 12.728-9.468 25.522-24.876 25.5-32.555-.05-29.303-54.53-28.805-74.759M1026.506 238.859c2.21-43.512 2.04-87.204 3.047-130.759.063-2.741-2.383-4.858-5.086-4.4l-6.549 1.109c-2.717.459-5.175-1.688-5.089-4.442.169-5.461.3-8.998.463-12.06.107-2.003 1.569-3.67 3.541-4.044 12.471-2.367 24.939-4.752 37.403-7.155 2.754-.531 5.286 1.631 5.182 4.434-.116 3.145-.219 6.988-.355 12.676-.05 2.085-1.569 3.851-3.625 4.204-3.513.602-6.235 1.068-9.755 1.668-2.06.352-3.59 2.117-3.637 4.207-1.006 44.965-.792 90.065-2.964 134.992-.112 2.324-2.039 4.151-4.366 4.152l-3.858.002c-2.498.001-4.479-2.09-4.352-4.584M1064.209 238.512c2.137-53.378.94-106.868 3.15-160.244.092-2.186 1.678-4.023 3.825-4.44 10.358-2.011 20.713-4.035 31.066-6.072 2.961-.582 5.7 1.717 5.631 4.734-.074 3.218-.143 7.182-.229 12.987-.033 2.27-1.677 4.203-3.913 4.593-6.915 1.206-13.833 2.408-20.75 3.605-2.23.386-3.875 2.301-3.917 4.564-.198 10.553-.363 21.106-.525 31.659-.043 2.869 2.46 5.115 5.307 4.761 5.753-.714 11.505-1.431 17.258-2.149 2.838-.355 5.336 1.874 5.306 4.734-.119 11.035-.236 22.07-.354 33.105-.027 2.454-1.928 4.479-4.376 4.66-6.506.481-13.012.961-19.518 1.439-2.44.179-4.338 2.19-4.375 4.637-.177 11.7-.355 23.4-.572 35.101-.05 2.682 2.138 4.865 4.819 4.809l19.137-.414c2.676-.059 4.865 2.125 4.824 4.8-.092 6.102-.162 10.105-.245 13.424-.065 2.562-2.157 4.604-4.719 4.604-10.706.006-21.411.011-32.117.016-2.685 0-4.82-2.232-4.713-4.913M1115.547 237.45c1.299-56.002.516-112.045 1.861-168.045.064-2.724 2.022-5.04 4.695-5.569 6.202-1.23 10.519-2.09 17.787-3.542 36.304-8.792 29.89 71.709 29.898 88.587.011 21.664 6.674 95.354-31.203 94.508l-17.228.009c-3.264.002-5.886-2.684-5.81-5.948m41.743-87.333c.034-10.87 3.617-66.905-17.206-66.368-.289.008-.588.046-.873.097l-5.148.908c-2.762.487-4.784 2.873-4.811 5.676-.385 41.188-.578 82.377-.958 123.564-.03 3.282 2.657 5.938 5.938 5.865l4.048-.089c.361-.008.732-.04 1.087-.116 21.191-4.529 17.878-55.413 17.923-69.537"/><path clip-path="url(#b)" fill="#fff" d="M380.688 200.082v32.751h-242.301l242.301-32.751zm6-6.866l-337.483 45.617h337.483v-45.617zM1059.404 38.582l-242.3 32.751v-32.751h242.3zm89.182-6h-337.482v45.617l337.482-45.617zM1170.607 269.523v-6h-1133.551c-6.938-.003-13.164-2.795-17.717-7.339-4.544-4.553-7.336-10.779-7.339-17.717v-201.411c.003-6.938 2.795-13.164 7.339-17.717 4.553-4.544 10.779-7.336 17.717-7.339h1133.552c6.938.003 13.164 2.795 17.717 7.339 4.545 4.553 7.337 10.779 7.34 17.717v201.411c-.003 6.938-2.795 13.164-7.34 17.717-4.553 4.544-10.778 7.336-17.717 7.339v12c10.215.003 19.517-4.157 26.203-10.854 6.696-6.688 10.856-15.989 10.854-26.202v-201.411c.003-10.214-4.157-19.516-10.854-26.202-6.687-6.697-15.988-10.857-26.203-10.854h-1133.552c-10.213-.003-19.516 4.157-26.202 10.854-6.697 6.686-10.857 15.988-10.854 26.202v201.411c-.003 10.213 4.157 19.515 10.854 26.202 6.687 6.696 15.988 10.856 26.202 10.854h1133.552v-6z"/></svg>