<svg xmlns="http://www.w3.org/2000/svg" viewBox="0 0 638.4 590.7" enable-background="new 0 0 638.4 590.7"><path d="M24 229.3c.4-2.5 2.9-4.5 5.4-4.5h18c2.5 0 5.3 2 6.1 4.4l31.2 93.8c.8 2.4 2.1 2.4 2.9 0l31.5-93.8c.8-2.4 3.5-4.4 6.1-4.4h18c2.5 0 5 2 5.4 4.5l23.1 138c.4 2.5-1.3 4.5-3.8 4.5h-17.9c-2.5 0-5-2-5.4-4.5l-14.2-83.8c-.4-2.5-1.4-2.6-2.2-.2l-28.3 84.1c-.8 2.4-3.5 4.4-6.1 4.4h-15.5c-2.5 0-5.3-2-6.1-4.4l-28-84.1c-.8-2.4-1.8-2.3-2.2.2l-14.6 83.8c-.4 2.5-2.9 4.5-5.4 4.5h-18.1c-2.5 0-4.3-2-3.8-4.5l23.9-138zM273.2 228.2c18.9 0 35.1 6.8 48.7 20.5 13.6 13.7 20.4 30.3 20.4 50 0 19.5-6.7 35.9-20.1 49.4-13.4 13.5-29.7 20.2-48.8 20.2-20 0-36.7-6.9-49.9-20.8-13.2-13.8-19.9-30.3-19.9-49.3 0-12.8 3.1-24.5 9.3-35.2 6.2-10.7 14.7-19.2 25.4-25.4 10.8-6.2 22.4-9.4 34.9-9.4zm-.3 24.9c-12.3 0-22.7 4.3-31.1 12.9-8.4 8.6-12.6 19.5-12.6 32.7 0 14.7 5.3 26.4 15.9 35 8.2 6.7 17.7 10.1 28.3 10.1 12 0 22.3-4.4 30.8-13.1s12.7-19.4 12.7-32.2c0-12.7-4.3-23.4-12.8-32.2-8.6-8.8-19-13.2-31.2-13.2zM373.4 235.8c0-2.3 1.9-4.2 4.2-4.2h21.7c2.3 0 6.1.1 8.4.3 0 0 29.6 2.1 39 6.9 9.4 4.8 17.2 12.6 23.3 23.4 6.1 10.8 9.2 23.5 9.2 37.9 0 10.3-1.7 19.7-5.1 28.3-3.4 8.6-8.1 15.8-14.1 21.4-6 5.7-12.5 9.6-19.5 11.8-7 2.2-19.1 3.3-36.4 3.3h-26.3c-2.3 0-4.2-1.9-4.2-4.2v-124.9zm29.4 20.3c-2.3 0-4.2 1.9-4.2 4.2v75.7c0 2.3 1.9 4.2 4.2 4.2h3.4c2.3 0 6.1-.1 8.4-.3 0 0 15.8-1.1 21.1-3.7 5.2-2.7 9.5-7.1 12.8-13.4 3.3-6.3 5-14 5-23.2 0-14.2-4-25.1-11.9-32.9-7.1-7-18.6-10.5-34.4-10.5h-4.4zM553.2 229.1c.9-2.4 3.7-4.3 6.3-4.3h19.2c2.5 0 5.4 1.9 6.3 4.3l53.2 138.4c.9 2.4-.4 4.3-3 4.3h-19.9c-2.5 0-5.3-1.9-6.2-4.3l-8.2-21.7c-.9-2.4-3.7-4.3-6.2-4.3h-50.8c-2.5 0-5.4 1.9-6.3 4.3l-8.6 21.7c-.9 2.4-3.8 4.3-6.3 4.3h-19.9c-2.5 0-3.9-1.9-3-4.3l53.4-138.4zm17.7 38.9c-.9-2.4-2.4-2.4-3.3 0l-16.4 41.9c-.9 2.4.4 4.3 2.9 4.3h30.1c2.5 0 3.9-1.9 2.9-4.3l-16.2-41.9zM82.7 142.7l2.4 7.3c.3 1-.2 2.3-1.1 2.8 0 0-9.4 5-11.9 10.3-2.1 4.5-2.4 9.1-.8 13.6 1.6 4.6 4.7 7.9 9.2 10.1 3.2 1.5 6.3 2.1 9.4 1.9 3.1-.2 5.9-1.2 8.5-3.1 2.6-1.8 4.6-4.3 6.1-7.4 1.2-2.6 1.9-5.2 1.9-7.9 0-2.6-.6-5.9-2-9.7l7.4-2.5c1-.3 2.1.2 2.4 1.3 0 0 2 7.6 1.9 11.4-.2 3.7-1.2 7.6-3.1 11.6-3.5 7.4-8.7 12.3-15.6 14.8s-14 2-21.3-1.5c-4.7-2.2-8.4-5.3-11.1-9.2-2.7-3.9-4.2-8.3-4.5-13.4-.3-5 .6-9.9 2.7-14.5 1.9-3.9 4.5-7.3 7.8-10.1 3.5-2.7 7.4-4.7 11.7-5.8zM86.1 125.4c-.9-.7-1.1-1.9-.4-2.8l4-5.2c.7-.9 1.8-2.3 2.5-3.1 0 0 5.1-6.1 7.4-7.4 2.3-1.3 4.9-1.9 7.7-1.6 2.8.3 5.5 1.4 8.1 3.4 2.7 2.1 4.5 4.5 5.4 7.2.9 2.7.7 5.8-.3 9.1l24.1 3.9c1.1.2 1.4 1 .8 1.9l-4.2 5.5c-.7.9-2.1 1.5-3.2 1.3l-20.9-3.4c-1.1-.2-2.1-.2-2.2 0-.2.2.4.9 1.3 1.6l14.5 11c.9.7 1.1 1.9.4 2.8l-3.6 4.8c-.7.9-1.9 1.1-2.8.4l-38.6-29.4zm19.2 2c.9.7 2 .6 2.5 0 .5-.7 1.4-2 2-2.9 0 0 1.8-2.8 1.9-4.3.1-1.5-.7-2.8-2.2-3.9-.9-.7-1.9-1.1-2.9-1.1s-2 .2-2.9.8c-.9.6-2.1 1.9-3.7 4l-.4.6c-.7.9-.5 2.1.4 2.8l5.3 4zM116.5 88.2c-.8-.8-.7-2.1.1-2.8l17.9-16.9c.8-.8 2.1-.7 2.8.1l4 4.2c.8.8.7 2.1-.1 2.8l-10.7 10.1c-.8.8-.8 2-.1 2.8l3.8 4c.8.8 2 .8 2.8.1l10.7-10.1c.8-.8 2.1-.7 2.8.1l3.8 4.1c.8.8.7 2.1-.1 2.8l-10.7 10.1c-.8.8-.8 2-.1 2.8l6.7 7.1c.8.8 2 .8 2.8.1l10.7-10.1c.8-.8 2.1-.7 2.8.1l4 4.2c.8.8.7 2.1-.1 2.8l-17.9 16.9c-.8.8-2.1.7-2.8-.1l-33.1-35.2zM162.8 49.6c-.2-1.1.4-2.4 1.3-3l5.2-3.3c.9-.6 2.4-.5 3.3.1l42 31c.9.7.8 1.7-.1 2.3l-5.4 3.4c-.9.6-2.4.5-3.3-.1l-6.1-4.5c-.9-.7-2.4-.7-3.3-.1l-14.7 9.3c-.9.6-1.5 2-1.3 3l1.4 7.5c.2 1.1-.4 2.4-1.3 3l-5.4 3.4c-.9.6-1.9.2-2.1-.9l-10.2-51.1zm13 8.2c-.9-.7-1.4-.3-1.2.8l3 15c.2 1.1 1.1 1.5 2.1.9l8.5-5.4c.9-.6 1-1.6.1-2.3l-12.5-9zM197.6 29.7c-.4-1 .1-2.2 1.1-2.6l23.1-9.6c1-.4 2.2.1 2.6 1.1l2.2 5.4c.4 1-.1 2.2-1.1 2.6l-5.1 2.1c-1 .4-1.5 1.6-1.1 2.6l14.8 35.6c.4 1-.1 2.2-1.1 2.6l-5.7 2.4c-1 .4-2.2-.1-2.6-1.1l-14.7-35.6c-.4-1-1.6-1.5-2.6-1.1l-4.9 2c-1 .4-2.2-.1-2.6-1.1l-2.3-5.3zM234.1 15.6c-.3-1.1.3-2.2 1.3-2.5l5.7-1.7c1.1-.3 2.2.3 2.5 1.3l13.8 46.4c.3 1.1-.3 2.2-1.3 2.5l-5.7 1.7c-1.1.3-2.2-.3-2.5-1.3l-13.8-46.4zM256.4 8.5c-.5-1 0-1.9 1-2.1l6.2-.9c1.1-.2 2.4.5 2.9 1.5l16.5 31.4c.5 1 1.1.9 1.3-.2l7.1-34.9c.2-1.1 1.3-2.1 2.4-2.2l6.2-.9c1.1-.2 1.8.6 1.6 1.7l-10.4 50.7c-.2 1.1-1.3 2.1-2.4 2.2l-5.6.8c-1.1.2-2.4-.5-2.9-1.5l-23.9-45.6zM317.5 2.2c0-1.1 1-2 2.1-1.9l24.6 1c1.1 0 2 1 1.9 2.1l-.2 5.8c0 1.1-1 2-2.1 1.9l-14.7-.6c-1.1 0-2 .8-2.1 1.9l-.2 5.5c0 1.1.8 2 1.9 2.1l14.7.6c1.1 0 2 1 1.9 2.1l-.2 5.6c0 1.1-1 2-2.1 1.9l-14.7-.6c-1.1 0-2 .8-2.1 1.9l-.4 9.8c0 1.1.8 2 1.9 2.1l14.7.6c1.1 0 2 1 1.9 2.1l-.2 5.8c0 1.1-1 2-2.1 1.9l-24.6-1c-1.1 0-2-1-1.9-2.1l2-48.5zM385.6 9.7c.3-1 1.5-1.6 2.5-1.3l7.5 2.4c1 .3 2.7.9 3.8 1.3 0 0 10.5 4.2 13.5 7.1 3 2.9 4.9 6.8 5.9 11.6s.6 9.9-1.1 15.3c-1.2 3.8-3 7.2-5.3 10s-4.9 4.9-7.8 6.3c-2.9 1.4-5.8 2.1-8.7 2.1-2.9 0-7.6-1.1-14-3.1l-9.5-3c-1-.3-1.6-1.5-1.3-2.5l14.5-46.2zm9 10.9c-1-.3-2.2.3-2.5 1.3l-8.8 27.7c-.3 1 .3 2.2 1.3 2.5l.6.2 3.8 1.1s5.7 1.4 8 1c2.3-.4 4.4-1.5 6.4-3.5s3.5-4.7 4.6-8.1c1.7-5.3 1.5-9.9-.5-13.8-1.8-3.5-5.7-6.2-11.6-8l-1.3-.4zM440 29.5c.5-1 1.7-1.3 2.7-.8l21.7 11.6c1 .5 1.3 1.7.8 2.7l-2.7 5.1c-.5 1-1.7 1.3-2.7.8l-13-6.9c-1-.5-2.2-.1-2.7.8l-2.6 4.8c-.5 1-.1 2.2.8 2.7l13 6.9c1 .5 1.3 1.7.8 2.7l-2.6 4.9c-.5 1-1.7 1.3-2.7.8l-13-6.9c-1-.5-2.2-.1-2.7.8l-4.6 8.6c-.5 1-.1 2.2.8 2.7l13 6.9c1 .5 1.3 1.7.8 2.7l-2.7 5.1c-.5 1-1.7 1.3-2.7.8l-21.7-11.6c-1-.5-1.3-1.7-.8-2.7l22.8-42.5zM497 71.9l-7.8.6c-1.1.1-2.1-.7-2.2-1.8 0 0-.7-5.5-2.8-7.1-1-.8-2.1-1.1-3.2-1.1-1.1.1-1.9.4-2.4 1.1-.5.7-.8 1.5-.8 2.5 0 1.3.6 4.6 1.8 9.8 1.1 4.8 1.8 7.8 1.9 9 .4 2.8.4 5.3-.1 7.3-.4 2-1.3 3.9-2.7 5.6-2.6 3.4-5.9 5.4-10 5.8-4.1.5-8-.8-11.8-3.6-3-2.2-5-4.9-6.2-8.1-1.1-3.1-1.3-6.9-.5-11.2l7.8.8c1.1.1 2 1.1 2 2.2 0 0 .1 6.8 2.8 8.8 1.4 1 2.8 1.5 4.4 1.4 1.5-.1 2.7-.7 3.5-1.7.7-1 1.1-2.2 1.1-3.6 0-1.5-.4-4.1-1.4-7.9-1.8-7.2-2.6-12.2-2.4-15.3.2-3 1-5.5 2.6-7.6 2.2-2.9 5.2-4.6 8.9-5 3.8-.4 7.3.6 10.5 3 2.1 1.6 3.7 3.6 4.9 5.9 1.1 2.6 1.8 6 2.1 10.2zM510.6 77.5c.8-.8 2-.8 2.8-.1l4.3 4.1c.8.8.8 2 .1 2.8l-33.5 34.9c-.8.8-2 .8-2.8.1l-4.3-4.1c-.8-.8-.8-2-.1-2.8l33.5-34.9zM554.1 139.3l-7.8-1.2c-1.1-.2-2-1.2-2-2.3 0 0 0-9.9-3.6-14.7-3.1-4.1-7-6.6-11.8-7.4-4.8-.8-9.2.3-13.1 3.2-4.1 3-6.4 7-7.1 12-.7 5 .6 9.6 3.7 13.9 2.1 2.8 4.4 4.7 6.9 5.7 2.6 1 5.5 1.2 8.9.6l-7.8-10.6c-.7-.9-.5-2.1.4-2.8l4.3-3.2c.9-.7 2.1-.5 2.8.4l13.3 18c.7.9.8 1.9.3 2.3-.5.4-1.7 1.1-2.6 1.7 0 0-6.1 3.4-10.9 3.9-4.7.5-9.1-.1-13.1-1.8-4-1.8-7.5-4.7-10.5-8.8-3.2-4.4-5.2-9-5.8-13.8-.6-4.8.1-9.6 2.1-14.1 2-4.6 5.1-8.4 9.2-11.4 5.6-4.1 11.8-5.9 18.6-5.2 8.1.7 14.8 4.6 20 11.6 2.7 3.7 4.6 7.6 5.6 11.8.9 3.5.9 7.6 0 12.2zM570.1 154.7c1-.4 2.2 0 2.6 1.1l2.2 5.1c.4 1 .3 2.6-.3 3.5l-20.8 30.8c-.6.9-.3 1.3.7.9l28.1-11.9c1-.4 2.2 0 2.6 1.1l2.3 5.5c.4 1 0 2.2-1.1 2.6l-44.6 18.9c-1 .4-2.2 0-2.6-1.1l-2.2-5.2c-.4-1-.3-2.6.3-3.5l20.7-30.7c.6-.9.3-1.3-.7-.9l-28 11.9c-1 .4-2.2 0-2.6-1.1l-2.3-5.5c-.4-1 0-2.2 1.1-2.6l44.6-18.9zM105.6 433.3l-7.2-2.5c-1-.4-1.7-1.5-1.6-2.6 0 0 1.8-10.4-1-15.7-2.3-4.5-5.7-7.4-10.4-8.9-4.6-1.5-9.2-1.1-13.6 1.2-3.1 1.6-5.5 3.7-7.2 6.3-1.7 2.6-2.6 5.5-2.7 8.7-.1 3.2.6 6.3 2.2 9.3 1.3 2.6 3 4.7 5.1 6.3 2.1 1.6 5 3.1 8.9 4.3l-2.5 7.4c-.4 1-1.5 1.5-2.5 1.1 0 0-7.3-3-10.2-5.4-2.9-2.4-5.3-5.6-7.3-9.5-3.7-7.3-4.5-14.4-2.2-21.3 2.2-7 6.9-12.3 14.1-16 4.7-2.4 9.3-3.5 14-3.2 4.7.2 9.1 1.8 13.4 4.6 4.2 2.8 7.5 6.5 9.8 11 2 3.8 3.1 8 3.3 12.4 0 4.1-.7 8.4-2.4 12.5zM135.4 453.2c4.9 5.6 7 12.2 6.5 19.7-.6 7.6-3.7 13.9-9.6 18.9-5.8 5-12.4 7.3-19.8 6.8-7.5-.5-13.6-3.6-18.6-9.3-5.2-5.9-7.4-12.7-6.7-20.2.7-7.5 3.9-13.7 9.5-18.6 3.8-3.3 8.1-5.4 12.8-6.3 4.8-.9 9.5-.6 14.1 1 4.7 1.6 8.6 4.3 11.8 8zm-7.5 6.3c-3.2-3.7-7.1-5.6-11.8-5.9-4.7-.3-9 1.3-13 4.7-4.4 3.8-6.5 8.4-6.3 13.7.1 4.2 1.6 7.8 4.3 11 3.1 3.6 7 5.5 11.8 5.8 4.8.3 9-1.2 12.8-4.5 3.8-3.3 5.9-7.3 6.3-12.1.5-4.9-.9-9.1-4.1-12.7zM158.2 480.8c.7-.9 1.9-1 2.8-.3l4.7 3.7c.9.7 1 1.9.3 2.8l-24 30.5c-.7.9-.5 2.1.3 2.8l8.3 6.5c.9.7 1 1.9.3 2.8l-3.4 4.3c-.7.9-1.9 1-2.8.3l-16.1-12.7c-.9-.7-1-1.9-.3-2.8l29.9-37.9zM183.5 499.8c.6-.9 1.8-1.3 2.7-.7l5.1 3.1c.9.6 1.3 1.8.7 2.7l-19.9 33.4c-.6.9-.2 2.2.7 2.7l9.1 5.4c.9.6 1.3 1.8.7 2.7l-2.8 4.7c-.6.9-1.8 1.3-2.7.7l-17.6-10.5c-.9-.6-1.3-1.8-.7-2.7l24.7-41.5zM225 521.2c.7-.8 2.2-1.2 3.2-.8l5.7 2.2c1 .4 1.9 1.6 1.9 2.7l.2 52.2c0 1.1-.8 1.7-1.9 1.3l-6-2.3c-1-.4-1.9-1.6-1.9-2.7v-7.6c0-1.1-.8-2.3-1.9-2.7l-16.3-6.2c-1-.4-2.5 0-3.2.8l-5.1 5.6c-.7.8-2.2 1.2-3.2.8l-6-2.3c-1-.4-1.3-1.4-.5-2.2l35-38.8zm1.2 15.3c0-1.1-.6-1.3-1.4-.5l-10.3 11.4c-.7.8-.5 1.8.5 2.2l9.4 3.6c1 .4 1.9-.2 1.9-1.3l-.1-15.4zM254.7 583.3c-1.1-.2-1.8-1.2-1.6-2.3l8.1-47.8c.2-1.1 1.2-1.8 2.3-1.6l4.2.7c1.1.2 2.9.5 3.9.7 0 0 6.2 1.3 8.2 2.3 3 1.3 5.2 3.3 6.6 5.8 1.5 2.5 1.9 5.3 1.4 8.3-.3 2-1.1 3.7-2.2 5.1-1.1 1.5-2.7 2.7-4.8 3.8 2.9 2 4.9 4.2 6 6.7 1.1 2.5 1.4 5.2.8 8.2-.5 2.9-1.7 5.4-3.6 7.6-1.9 2.1-4.1 3.6-6.7 4.4-2.6.8-5.9.8-10.1.1l-12.5-2zm13.7-20.9c-1.1-.2-2.1.6-2.3 1.6l-1.6 9.3c-.2 1.1.2 2.1.9 2.2.7.1 2.1.3 3.2.4 0 0 4.9.5 6.5-.3 1.6-.8 2.6-2.2 2.9-4.1.4-2.2-.2-4.1-1.6-5.7-1.4-1.6-4.1-2.8-8-3.4zm3.3-19.7c-1.1-.2-2.1.6-2.3 1.6l-1.2 7c-.2 1.1.2 2.1.7 2.2.6.1 2 .2 3.1.3 0 0 2.3.1 3.6-.7 1.3-.8 2.1-2.1 2.4-3.8.3-1.6-.1-3-1-4.1-.9-1.1-2.5-1.9-4.8-2.3l-.5-.2zM326.9 535.7c7.4-.3 13.9 2.1 19.5 7.2s8.5 11.6 8.9 19.3c.3 7.6-2 14.2-7 19.8-5 5.5-11.3 8.4-18.8 8.8-7.9.3-14.5-2.1-20-7.3-5.4-5.2-8.3-11.6-8.6-19-.2-5 .8-9.7 3-14 2.2-4.3 5.4-7.8 9.6-10.4 4-2.8 8.5-4.2 13.4-4.4zm.3 9.7c-4.8.2-8.9 2.1-12 5.6-3.2 3.5-4.6 7.9-4.4 13.1.3 5.8 2.5 10.3 6.8 13.5 3.3 2.5 7.1 3.7 11.3 3.5 4.7-.2 8.7-2.1 11.9-5.7 3.2-3.6 4.7-7.8 4.4-12.9-.2-5-2.1-9.1-5.6-12.4-3.4-3.3-7.6-4.9-12.4-4.7zM363.4 535.1c-.3-1.1.4-2.2 1.4-2.4l6.4-1.6c1.1-.3 2.8-.7 3.9-.9 0 0 7.8-1.6 10.4-1.2 2.6.4 5 1.6 7 3.5 2 2 3.5 4.5 4.3 7.7.9 3.3.8 6.3-.2 9s-3 5-5.9 7l16.5 18c.7.8.5 1.7-.6 2l-6.7 1.7c-1.1.3-2.5-.2-3.3-1l-14.3-15.6c-.7-.8-1.5-1.4-1.8-1.4s-.2 1 .1 2l4.5 17.6c.3 1.1-.4 2.2-1.4 2.4l-5.8 1.5c-1.1.3-2.2-.4-2.4-1.4l-12.1-46.9zm13.8 13.5c.3 1.1 1.2 1.8 2 1.5.8-.2 2.4-.7 3.4-1 0 0 3.2-1.1 4.1-2.2 1-1.1 1.2-2.6.7-4.5-.3-1.1-.8-2-1.6-2.7-.8-.7-1.7-1.1-2.8-1.2-1.1-.1-2.9.2-5.4.8l-.7.2c-1.1.3-1.7 1.4-1.4 2.4l1.7 6.7zM416.8 517.6c-.1-1.1.7-2.4 1.6-2.9l5.5-2.6c1-.5 2.5-.2 3.3.5l37.9 35.8c.8.8.6 1.8-.3 2.2l-5.7 2.8c-1 .5-2.5.2-3.3-.5l-5.5-5.2c-.8-.8-2.3-1-3.3-.5l-15.7 7.5c-1 .5-1.7 1.8-1.7 2.9l.5 7.6c.1 1.1-.7 2.4-1.7 2.9l-5.7 2.8c-1 .5-1.9 0-2-1.1l-3.9-52.2zm11.9 9.7c-.8-.8-1.4-.5-1.3.6l1.1 15.3c.1 1.1 1 1.6 2 1.1l9-4.3c1-.5 1.1-1.5.3-2.2l-11.1-10.5zM446.1 502.5c-.6-.9-.4-2.2.5-2.8l20.3-14.5c.9-.6 2.2-.4 2.8.5l3.4 4.8c.6.9.4 2.2-.5 2.8l-4.5 3.2c-.9.6-1.1 1.9-.5 2.8l22.4 31.4c.6.9.4 2.2-.5 2.8l-5 3.6c-.9.6-2.2.4-2.8-.5l-22.4-31.4c-.6-.9-1.9-1.1-2.8-.5l-4.3 3.1c-.9.6-2.2.4-2.8-.5l-3.3-4.8zM473.9 481.7c-.7-.8-.6-2.1.2-2.8l4.4-3.9c.8-.7 2.1-.6 2.8.2l32.1 36.3c.7.8.6 2.1-.2 2.8l-4.4 3.9c-.8.7-2.1.6-2.8-.2l-32.1-36.3zM487.3 470.6c-1-.4-1.3-1.4-.6-2.2l4-4.8c.7-.8 2.1-1.2 3.2-.8l33.2 12.6c1 .4 1.4-.1.9-1l-17.8-30.8c-.5-1-.4-2.4.3-3.3l4-4.8c.7-.8 1.7-.7 2.3.2l25.8 44.8c.5 1 .4 2.4-.3 3.3l-3.6 4.3c-.7.8-2.1 1.2-3.2.8l-48.2-18.3zM521 428.6c-1-.5-1.3-1.8-.7-2.7l12.3-21.3c.5-1 1.8-1.3 2.7-.7l5 2.9c1 .5 1.3 1.8.7 2.7l-7.4 12.7c-.5 1-.2 2.2.7 2.7l4.7 2.7c1 .5 2.2.2 2.7-.7l7.4-12.7c.5-1 1.8-1.3 2.7-.7l4.8 2.8c1 .5 1.3 1.8.7 2.7l-7.4 12.7c-.5 1-.2 2.2.7 2.7l8.5 4.9c1 .5 2.2.2 2.7-.7l7.4-12.7c.5-1 1.8-1.3 2.7-.7l5 2.9c1 .5 1.3 1.8.7 2.7l-12.3 21.3c-.5 1-1.8 1.3-2.7.7l-41.6-24.2zM297.6 128.4c3.8 0 7.1.9 9.9 2.8 2.8 1.9 4.9 4.7 6.4 8.6 1.5 3.9 2.3 9.2 2.3 16.1 0 7-.8 12.4-2.3 16.3-1.5 3.9-3.6 6.7-6.2 8.5-2.6 1.8-5.9 2.7-9.8 2.7-3.9 0-7.3-.9-9.9-2.7-2.7-1.8-4.8-4.6-6.3-8.3-1.5-3.7-2.3-9-2.3-15.9 0-9.6 1.5-16.6 4.5-20.9 3.2-4.9 7.8-7.2 13.7-7.2zm.2 9.5c-1.7 0-3.2.5-4.5 1.6-1.3 1.1-2.3 2.9-3 5.6-.7 2.6-1 6.5-1 11.6 0 6.6.8 11.2 2.4 13.7 1.6 2.5 3.6 3.8 6.1 3.8 2.4 0 4.3-1.2 5.8-3.6 1.7-2.9 2.6-7.7 2.6-14.5 0-6.9-.8-11.6-2.3-14.3-1.6-2.6-3.6-3.9-6.1-3.9zM329.9 131.6c.2-1.1 1.3-2 2.4-2h20.6c1.1 0 2 .9 2 2v5.2c0 1.1-.9 2-2 2h-13.1c-1.1 0-2.2.9-2.4 2l-1.3 5.6c-.2 1.1.1 1.8.7 1.7l.6-.1c.6-.1 1.1-.1 1.6-.1 4.8 0 8.7 1.6 11.9 4.9 3.1 3.2 4.7 7.4 4.7 12.5s-1.7 9.4-5.2 12.9-7.7 5.3-12.7 5.3c-4.5 0-8.3-1.3-11.5-3.8-3.2-2.5-5.3-6-6.3-10.4h8.5c1.1 0 2.5.8 3.1 1.7 0 0 .8 1.2 2.1 2s2.8 1.3 4.4 1.3c2.2 0 4.1-.8 5.6-2.4 1.5-1.6 2.3-3.6 2.3-6.1 0-2.4-.7-4.4-2.2-6-1.4-1.6-3.2-2.3-5.2-2.3-1.1 0-2.2.3-3.2.8-1.1.5-2.1 1.4-3.1 2.5l-6.2-1.4c-1.1-.2-1.8-1.3-1.5-2.4l5.4-25.4z"/><circle cx="385.5" cy="155.7" r="7"/><circle cx="252.9" cy="155.7" r="7"/><path d="M297.6 412.2c3.8 0 7.1.9 9.9 2.8 2.8 1.9 4.9 4.7 6.4 8.6 1.5 3.9 2.3 9.2 2.3 16.1 0 7-.8 12.4-2.3 16.3-1.5 3.9-3.6 6.7-6.2 8.5-2.6 1.8-5.9 2.7-9.8 2.7-3.9 0-7.3-.9-9.9-2.7-2.7-1.8-4.8-4.6-6.3-8.3-1.5-3.7-2.3-9-2.3-15.9 0-9.6 1.5-16.6 4.5-20.9 3.2-4.9 7.8-7.2 13.7-7.2zm.2 9.4c-1.7 0-3.2.5-4.5 1.6-1.3 1.1-2.3 2.9-3 5.6s-1 6.5-1 11.6c0 6.6.8 11.2 2.4 13.7 1.6 2.5 3.6 3.8 6.1 3.8 2.4 0 4.3-1.2 5.8-3.6 1.7-2.9 2.6-7.7 2.6-14.5 0-6.9-.8-11.6-2.3-14.3-1.6-2.6-3.6-3.9-6.1-3.9zM322.6 415.5c0-1.1.9-2 2-2h30.4c1.1 0 2 .9 2 2v1.2c0 1.1-.4 2.8-.9 3.8l-21.9 44.9c-.5 1-1.7 1.4-2.7.9l-4.8-2.3c-1-.5-1.4-1.7-.9-2.7l17.9-36.7c.5-1 0-1.8-1.1-1.8h-18c-1.1 0-2-.9-2-2v-5.3z"/><circle cx="385.5" cy="438.8" r="7"/><circle cx="252.9" cy="438.8" r="7"/></svg>