<svg xmlns="http://www.w3.org/2000/svg" xmlns:xlink="http://www.w3.org/1999/xlink" width="598.574" height="180.624" viewBox="0 0 598.574 180.624"><defs><path id="a" d="M0 0h598.574v180.624h-598.574z"/></defs><clipPath id="b"><use xlink:href="#a" overflow="visible"/></clipPath><path clip-path="url(#b)" d="M156.866 73.958c-2.372 10.758-4.753 21.514-7.142 32.269-.263 1.187-1.939 1.236-2.273.068-2.477-8.664-4.945-17.332-7.402-26.002-.177-.622-.828-.982-1.45-.805-2.251.64-3.747 1.031-6.1 1.593-.425.101-.759.432-.864.856-2.569 10.352-5.154 20.699-7.756 31.041-.297 1.182-1.98 1.182-2.278.001-2.333-9.253-4.655-18.508-6.966-27.765-.14-.563-.675-.938-1.252-.881-3.386.332-5.533.457-8.791.484-.777.006-1.336.75-1.122 1.496 4.253 14.789 8.562 29.561 12.923 44.318.163.551.706.903 1.276.831 3.442-.433 5.539-.785 9.051-1.497.446-.091.801-.432.907-.875 2.359-9.82 4.708-19.644 7.048-29.467.281-1.18 1.943-1.207 2.264-.038 2.261 8.237 4.535 16.473 6.819 24.706.178.639.857 1.003 1.49.802 3.391-1.078 5.488-1.809 9.033-3.121.36-.134.637-.437.733-.809 4.299-16.714 8.574-33.435 12.824-50.161.239-.939-.705-1.744-1.597-1.366-3.069 1.3-5.218 2.167-8.645 3.479-.368.142-.645.459-.73.843M169.492 92.085c-.351 14.616 13.258 19.034 24.84 13.042 13.374-6.92 24.492-21.6 24.911-37.009.403-14.848-13.663-18.041-24.911-12.24-13.191 6.802-24.472 20.881-24.84 36.207m24.841-27.214c8.732-4.327 14.56-.418 14.489 8.432-.075 9.457-6.036 18.622-14.489 22.829-8.707 4.337-14.473.071-14.418-8.724.057-9.436 5.996-18.365 14.418-22.537M255.587 56.79c5.366-4.069 8.83-10.426 9.051-17.125.299-9.06-8.397-13.008-15.988-9.085-7.193 3.068-14.296 6.344-21.335 9.751-.572.277-.935.857-.935 1.492 0 14.645.001 29.29 0 43.935 0 1.218 1.275 2.016 2.373 1.487 2.369-1.141 4.167-1.992 6.802-3.215.583-.271.961-.859.961-1.503l-.001-14.8c0-.645.379-1.234.965-1.504 1.972-.911 3.319-1.522 5.239-2.373.712-.315 1.55-.089 2.009.54 2.989 4.093 4.805 6.603 7.801 10.801.444.622 1.265.86 1.973.574 3.187-1.289 5.312-2.11 8.312-3.189 1.045-.376 1.432-1.66.766-2.549-3.105-4.151-5.132-6.808-8.305-10.909-.563-.728-.421-1.772.312-2.328m-8.435-3.8c-3.398 1.462-5.44 2.368-8.293 3.676-1.095.503-2.344-.297-2.344-1.501v-9.209c0-.645.379-1.232.965-1.503 3.636-1.678 5.752-2.625 9.672-4.311 4.068-1.751 7.137-.549 7.137 3.448s-3.069 7.65-7.137 9.4M282.41 37.372v-17.364c0-.555-.527-.961-1.065-.825-3.189.806-5.159 1.37-8.469 2.399-.356.111-.601.442-.601.815 0 15.274 0 30.549-.001 45.823 0 .574.56.982 1.108.812 3.149-.974 5.112-1.527 8.38-2.348.379-.095.647-.441.647-.832l.001-13.689c0-.173.057-.353.156-.496 1.17-1.686 1.88-2.703 2.939-4.204.315-.446.966-.489 1.333-.085 4.585 5.059 9.056 10.22 13.41 15.478.182.22.468.333.752.302 4.088-.45 6.509-.618 10.264-.654.712-.007 1.104-.837.656-1.391-5.956-7.392-12.164-14.581-18.61-21.55-.277-.3-.303-.755-.06-1.084 5.571-7.539 11.326-14.946 17.312-22.161.467-.562.057-1.406-.675-1.39-3.727.083-6.148.281-10.253.778-.236.029-.459.157-.599.351-5.162 7.164-10.175 14.435-15.069 21.784-.467.702-1.556.374-1.556-.469M303.401 71.15c-5.431-.001-10.155 1.948-13.517 5.27-3.363 3.32-5.355 8.009-5.354 13.44-.001 5.432 1.991 10.12 5.354 13.441 3.361 3.32 8.086 5.271 13.517 5.27 5.455.001 10.194-1.948 13.562-5.27 3.37-3.32 5.362-8.01 5.36-13.441.002-5.431-1.99-10.12-5.36-13.441-3.367-3.32-8.106-5.27-13.562-5.269m7.552 26.736c-1.809 2.003-4.387 3.215-7.552 3.218-3.166-.003-5.729-1.214-7.524-3.217-1.793-2.004-2.815-4.814-2.815-8.026 0-3.238 1.022-6.048 2.815-8.045 1.795-1.995 4.357-3.195 7.524-3.197 3.168.002 5.744 1.202 7.552 3.198 1.806 1.997 2.841 4.807 2.841 8.044 0 3.209-1.035 6.021-2.841 8.025M337.451 79.149h12.971c1.258 0 2.277-1.02 2.277-2.277v-2.861c0-1.258-1.02-2.277-2.277-2.277h-21.289c-1.258 0-2.277 1.019-2.277 2.277v33.922h6.04c1.258 0 2.278-1.019 2.278-2.277v-10.102c0-1.258 1.019-2.277 2.277-2.277h12.599c1.258 0 2.278-1.02 2.278-2.277v-2.86c0-1.258-1.021-2.278-2.278-2.278h-12.599c-1.259 0-2.277-1.019-2.277-2.277v-2.157c0-1.259 1.018-2.279 2.277-2.279M119.604 19.016h-20.363c-.586 0-1.06.475-1.06 1.06v3.757c0 .586.474 1.06 1.06 1.06h5.836c.586 0 1.06.475 1.06 1.06v21.054h5.5520000000000005c.585 0 1.06-.474 1.06-1.06v-19.994c0-.585.474-1.06 1.059-1.06h5.796c.585 0 1.06-.474 1.06-1.06v-3.757c0-.585-.475-1.06-1.06-1.06M128.831 19.016h-3.887c-.741 0-1.342.601-1.342 1.342v25.307c0 .741.601 1.342 1.342 1.342h3.887c.741 0 1.342-.601 1.342-1.342v-8.74c0-.741.601-1.342 1.342-1.342h9.391c.741 0 1.342.601 1.342 1.342v10.082h5.2700000000000005c.741 0 1.342-.601 1.342-1.342v-25.307c0-.741-.601-1.342-1.342-1.342h-3.928c-.741 0-1.342.601-1.342 1.342v8.006c0 .741-.601 1.342-1.342 1.342h-9.391c-.741 0-1.342-.601-1.342-1.342v-8.006c0-.741-.601-1.342-1.342-1.342M158.64 19.016h-3.848c-.752 0-1.361.609-1.361 1.361v26.63h5.209c.752 0 1.361-.609 1.361-1.361v-25.269c-.001-.752-.609-1.361-1.361-1.361M178.289 40.804c-.699.5-1.802.856-3.334.856-3.635 0-6.514-1.619-8.37-3.553l-.324-.338-3.604 5.054.229.232c2.602 2.647 6.474 4.444 11.783 4.441 3.736 0 6.559-.955 8.455-2.594 1.897-1.637 2.83-3.947 2.827-6.526.007-2.64-1.039-4.506-2.581-5.786-2.31-1.922-5.658-2.627-8.399-3.291-1.369-.327-2.589-.645-3.422-1.054-.417-.204-.732-.428-.93-.664-.197-.238-.292-.475-.295-.792.006-.705.281-1.247.846-1.665.565-.414 1.453-.681 2.642-.68 2.689-.001 5.533.911 7.651 2.874l.315.291 3.695-4.865-.259-.239c-2.77-2.563-6.47-3.9-10.871-3.898-3.278 0-5.953.962-7.815 2.535-1.861 1.571-2.898 3.759-2.896 6.136-.008 2.66 1.042 4.519 2.59 5.78 2.318 1.894 5.674 2.548 8.417 3.215 1.371.329 2.59.662 3.421 1.104.416.221.73.465.932.73.201.267.305.55.307.922-.002.643-.311 1.271-1.01 1.775M472.541 138.179c3.3-.004 3.3-5.121 0-5.117-7.773.009-13.672 5.855-14.662 13.381-.996 7.558 5.464 12.326 12.149 13.014 15.63 1.608 27.102-13.197 25.785-27.813-.688-7.648-4.911-14.689-11.499-18.667-7.36-4.444-17.017-3.039-24.783-.631-10.421 3.231-20.438 8.688-30.298 13.301-8.762 4.101-52.874 29.323-62.889 34.376 0 0-2.958.997-3.128 2.112-.883 1.828.601 3.344 4.394 3.005h80.433c1.03.107 2.086.086 3.11.08.307-.001.575-.057.827-.134 2.058-.397 2.466-3.037 1.235-4.339-.437-.573-1.117-.97-2.062-.965-1.149.007-3.226.423-3.908-.764-.2-.349.026-2.044.412-2.086 1.474-.159 2.72-1.115 2.72-2.719 0-1.361-1.243-2.879-2.72-2.719-4.142.448-6.434 4.276-5.782 8.267l.058.261h-63.154c22.021-10.961 55.328-31.058 63.133-34.646 8.877-4.083 18.031-9.02 27.896-10.016 8.799-.891 16.535 3.145 19.743 11.562 2.677 7.023 1.176 15.355-3.631 21.078-4.237 5.045-12.025 7.636-18.4 5.831-3.738-1.061-5.066-5.037-4.293-8.54.938-4.252 5.131-7.107 9.314-7.112M103.106 165.996h207.031c2.456 0 3.186-2.662 2.202-4.261v-43.39c0-1.755-1.362-2.631-2.723-2.629-.96-.911-2.411-1.152-3.474.189-9.53 12.044-17.223 26.525-32.601 31.775-8.625 2.945-19.392 3.242-27.638-1.006-1.539-1.263-3.19-2.398-4.936-3.405-1.34-1.218-2.554-2.612-3.597-4.214-6.584-10.107-.915-28.575 13.23-26.057 9.166 1.632 5.081 16.642-1.76 13.357-3.146-1.51-5.906 3.179-2.745 4.695 10.017 4.808 18.28-7.431 14.519-16.463-2.412-5.796-8.677-7.64-14.507-7.145-6.996.595-12.587 5.599-15.086 11.984-2.748 7.021-2.224 13.973.613 19.853-11.337-3.445-24.425-3.091-35.019.09-5.519 1.658-11.687 8.113-7.36 13.941 3.633 4.894 11.734 4.871 16.597 2.083 3.041-1.743.303-6.442-2.745-4.696-2.078 1.192-9.62 2.312-9.796-1.604-.241-5.345 10.74-5.782 14.085-6.108 10.231-.997 21.98-.359 31.078 5.037 1.283 1.086 2.672 2.072 4.16 2.939.206.147.417.264.631.349 1.812.997 3.753 1.829 5.808 2.457 15.775 4.823 33.352-1.25 44.45-12.831 5.017-5.235 9.075-11.287 13.376-17.118v36.738h-199.90900000000002v-13.762c5.171.528 10.378.456 15.538-.223.16-.021.306-.063.451-.105 26.621-1.557 52.101-11.893 75.857-23.347 12.886-6.213 25.223-13.045 37.34-20.641 5.822-3.65 11.8-6.988 17.733-10.446 2.683-1.564 5.394-3.012 8.406-3.825 1.187-.321 2.491-.191 3.676.043l.275.077c-.187.167-.389.409-.608.737-2.943 1.883-.219 6.592 2.745 4.695 3.833-2.452 6.136-6.391 1.796-9.647-4.133-3.102-10.364-1.079-14.453.768-6.856 3.097-13.477 7.434-19.869 11.378-7.297 4.503-14.469 9.191-22.036 13.239-28.415 15.199-60.127 30.271-92.866 31.636-.447.019-.836.125-1.169.295-4.914.443-9.856.35-14.758-.295-.476-.062-.88-.006-1.224.125-1.195.173-2.272 1.034-2.272 2.595v16.169h.029v5.515c.401.282.905.459 1.525.459M383.281 46.568c-2.63-4.541-8.268-7.78-13.547-7.143-6.149.742-8.626 6.341-8.312 11.98.193 3.486 5.633 3.505 5.438 0-.584-10.493 10.867-6.488 12.916.723 3.411 12.004-6.544 25.528-16.23 31.5-2.054 1.267-1.394 3.896.197 4.802.544 1.471 2.107 2.483 3.713 1.3 8.341-6.145 63.109-42.528 120.341-49.609 1.37-.169 2.196-1.084 2.488-2.115.146-.323.23-.69.23-1.103 0-1.355-1.243-2.888-2.719-2.719-2.085.238-4.894.679-6.597-.861-1.394-1.259-1.156-3.006.771-3.024 3.505-.033 3.508-5.471 0-5.438-4.902.046-8.241 4.243-6.662 9.021.292.884.7 1.636 1.185 2.292-7.01 1.376-13.903 3.371-20.955 4.804-20.537 4.175-50.3 19.56-70.413 31.258 4.515-8.62 9.971-16.706 14.681-25.225 5.249-9.495 9.966-18.988 21.033-22.701 4.449-1.492 8.99-.874 12.391 2.472 3.047 2.999 2.959 8.145.158 11.196-3.146 3.428-12.049 5.73-11.368-1.334.337-3.491-5.104-3.459-5.438 0-.939 9.732 8.857 11.517 16.059 8.413 9.713-4.187 11.046-17.667 2.469-23.834-11.38-8.181-25.483 1.08-32.718 10.43-4.655 6.016-7.564 13.337-11.466 19.856-1.692 2.827-3.414 5.633-5.1 8.458.569-4.587-.102-9.179-2.545-13.399M109.977 59.697c-4.692 5.442-6.014 13.364 1.727 17.233 5.627 2.813 12.982 1.685 16.778-3.362 3.468-4.613 1.257-10.394-4.788-9.991-3.48.231-3.503 5.671 0 5.438 1.181-.079 1.349-.605.763.685-.57 1.255-1.521 2.23-2.806 2.74-2.824 1.121-7.841.612-9.644-2.1-2.803-4.216 3.706-9.868 7.837-10.778h32.595c3.507 0 3.507-5.438 0-5.438h-30.39c-8.002 0-11.279 4.941-12.072 5.573"/><path clip-path="url(#b)" d="M509.302.053c-.174-.03-.351-.053-.529-.053h-168.322c-.966 0-1.874.447-2.463 1.212l-26.414 34.313c-.949 1.233-.836 2.992.266 4.093l19.842 19.842c.771.772 1.846 1.048 2.839.84 4.822 1.963 10.135-.145 12.826-4.98 3.033-5.449-2.093-13.111-8.273-10.277-3.184 1.46-.418 6.146 2.745 4.695.485-.222.995 1.617 1.016 1.895.069.951-.648 1.768-1.246 2.408-1.77 1.894-3.648 1.995-5.617.918l-17.807-17.806 23.815-30.938h163.685v168.068h-413.008v-168.068h181.817c-18.299 6.728-32.427 12.889-43.754 18.227-10.316 4.863-18.31 9.035-24.969 12.307l.823-1.961c1.08-2.598 2.15-5.2 3.283-7.613 1.691-3.623 3.554-6.8 5.606-8.886 1.024-1.049 2.077-1.829 3.188-2.351 1.114-.519 2.291-.804 3.708-.808.946-.001 1.661.098 2.152.227.37.096.613.206.758.292.22.135.228.184.245.205.011.022.039.068.041.25.004.224-.077.651-.306 1.136-.333.731-.989 1.558-1.685 2.091-.345.271-.694.47-.986.588-.295.119-.524.154-.667.154-.157-.005-.214-.021-.333-.086-.115-.069-.323-.223-.599-.66-.91-1.454-2.828-1.895-4.282-.985-1.455.911-1.896 2.829-.985 4.283.707 1.134 1.626 2.082 2.72 2.722 1.09.645 2.325.946 3.479.941 1.439-.003 2.742-.419 3.877-1.017 1.705-.909 3.097-2.231 4.161-3.774.529-.774.971-1.609 1.294-2.507.321-.897.526-1.861.528-2.886.001-.945-.184-1.951-.634-2.9-.335-.71-.817-1.376-1.41-1.936-.893-.844-2.007-1.437-3.236-1.809-1.234-.373-2.597-.543-4.132-.544-2.041-.002-3.97.393-5.709 1.114-1.523.63-2.897 1.499-4.126 2.521-2.153 1.794-3.877 4.04-5.377 6.483-2.244 3.668-4.001 7.82-5.67 11.826-1.662 4.002-3.24 7.863-4.931 10.827-.664 1.167-.508 2.614.388 3.613.897.999 2.32 1.309 3.551.775 8.543-3.716 18.409-9.191 32.884-16.01 14.468-6.817 33.53-14.985 60.277-24.012 1.44-.486 2.32-1.948 2.073-3.448-.246-1.499-1.548-2.604-3.067-2.604h-203.401c-.178 0-.354.023-.528.053h-88.723v180.445h85.51c1.581.083 3.173.126 4.775.126l.002-.126h417.99800000000005l.002.126c1.603 0 3.193-.043 4.775-.126h85.51v-180.445h-89.27zm-503.087 6.215h53.133c-24.064 9.268-43.64 28.193-53.133 51.91v-51.91zm0 168.015v-50.964c9.119 23.229 27.587 41.759 50.773 50.964h-50.773zm78.606-50.882c-8.285-.396-15.736-3.979-21.253-9.609-5.847-5.979-9.468-14.229-9.469-23.378.001-9.15 3.622-17.398 9.469-23.378 5.708-5.827 13.488-9.452 22.119-9.632l-.866 65.997zm1.323-100.746l-.374 28.532c-10.402.156-19.827 4.53-26.643 11.503-6.949 7.098-11.243 16.917-11.242 27.724-.001 10.808 4.293 20.625 11.242 27.725 6.591 6.741 15.62 11.057 25.613 11.477l-.585 44.575c-20.147-1.442-38.891-9.98-53.316-24.405-15.879-15.88-24.624-36.992-24.624-59.448 0-22.273 9.137-43.357 25.73-59.369 8.015-7.735 17.294-13.818 27.577-18.079 8.571-3.553 17.5-5.685 26.621-6.373v16.138zm427.61 100.789l-.87-66.205c.286.087.584.148.897.148 8.896.002 16.926 3.674 22.78 9.649 5.847 5.98 9.468 14.228 9.469 23.378-.001 9.149-3.622 17.398-9.469 23.378-5.854 5.976-13.885 9.647-22.78 9.649l-.027.003zm.08 6.211c10.611-.013 20.238-4.426 27.17-11.517 6.948-7.1 11.242-16.917 11.241-27.725.001-10.807-4.293-20.626-11.241-27.724-6.943-7.103-16.591-11.52-27.223-11.518-.343 0-.667.069-.975.171l-.589-44.846c9.195.671 18.195 2.813 26.834 6.393 10.282 4.261 19.561 10.344 27.577 18.079 16.592 16.012 25.729 37.096 25.729 59.369 0 22.456-8.745 43.568-24.624 59.447-14.425 14.425-33.168 22.963-53.314 24.405l-.585-44.534zm78.524 44.628h-50.772c23.185-9.205 41.652-27.735 50.772-50.964v50.964zm0-116.105c-9.494-23.717-29.069-42.642-53.133-51.91h53.133v51.91zM51.091 160.541l-.055.138-.022.116-.019.107.001.159.001.065c.025.227.116.443.264.621l.005.005c.095.111.212.209.351.282l.216.086.115.021.109.021.206-.002.019-.001c.227-.025.444-.116.621-.266l.01-.009c.109-.094.204-.208.275-.343l16.299-31.066c-.757-.368-1.497-.762-2.229-1.171l-16.137 31.16-.03.077zM33.38 147.405c-.106.112-.187.242-.24.383l-.005.017c-.048.135-.074.277-.07.423l.001.014c.005.146.038.287.094.418l.003.011c.061.139.15.268.264.376.114.108.246.19.389.244l.011.003c.133.049.276.074.422.072l.013.001c.146-.004.287-.037.419-.093l.017-.006c.137-.061.263-.147.37-.259l.005-.003 24.237-25.378c-.592-.532-1.174-1.076-1.737-1.639l-.089-.093-24.1 25.504-.004.005zM41.756 154.622l-.075.131-.037.11-.035.104-.021.161-.007.062c-.008.229.052.455.174.652l.004.005c.079.125.182.237.309.328l.202.116.116.039.1.033.215.027.008.001c.228.007.456-.054.652-.176l.011-.008c.121-.077.231-.177.32-.301l20.465-28.498c-.697-.47-1.377-.961-2.044-1.469l-20.318 28.611-.039.072zM71.764 168.212l-.015.152.01.114.012.111.045.153.019.062c.086.213.233.396.425.525l.005.003c.123.082.262.144.416.174l.232.023.119-.011.107-.011.204-.061.012-.004c.211-.086.394-.234.524-.426l.006-.013c.079-.12.139-.255.17-.404l7.107-34.367c-.83-.145-1.653-.312-2.467-.501l-6.923 34.401-.008.08zM61.18 165.017l-.002.006-.018.074-.036.149-.006.114-.004.113.023.155.01.065c.057.223.177.424.348.579l.005.003c.11.1.24.179.388.231l.226.055.121.006.106.004c.307-.016.595-.153.801-.382l.008-.011c.095-.108.173-.234.224-.378l11.819-33.036c-.802-.258-1.591-.542-2.372-.845l-11.64 33.094-.001.004zM19.606 130.244l-.009.011c-.139.185-.22.405-.233.634v.005l.009.22.025.104.028.118.098.212c.079.135.182.247.299.336l.005.004c.185.139.406.219.634.231l.063-.002.161-.007.107-.024.114-.028.139-.063.07-.031.005-.004h.001l30.288-17.71c-.446-.71-.876-1.431-1.282-2.167l-30.194 17.871c-.131.076-.24.177-.328.29"/><path clip-path="url(#b)" d="M9.012 89.699l.139.079.103.035.113.037.146.019.082.011 35.074 1.031-.002-.081c0-.817.026-1.629.07-2.436l-35.073-.844h-.007l-.075.006-.155.012-.108.029-.111.031-.139.07-.061.031c-.13.082-.242.188-.331.313l-.002.004-.109.191-.038.111-.035.105-.029.231.017.232.032.118.029.101.098.197.002.004c.082.13.189.242.314.331l.056.032zM44.834 94.54l-34.864 4.047-.081.018-.144.032-.109.047-.099.043-.132.091-.053.037c-.117.099-.214.22-.284.355l-.001.004-.082.205-.018.098-.024.127.003.232.05.228.046.107.044.102.122.176.006.009c.099.117.22.213.357.283l.061.025.147.058.111.022.112.02.156-.002h.074l.006-.001h.004l34.87-3.86c-.117-.828-.208-1.662-.278-2.503M45.772 100.615l-33.956 8.858c-.148.039-.28.104-.396.189l-.011.008c-.185.14-.324.329-.399.546l-.001.005-.052.213-.005.104-.005.123.035.23c.039.15.107.287.195.404l.004.008c.139.184.329.32.545.396l.068.018.15.035.115.007.112.004.155-.023.073-.011.005-.002h.001l.003-.001 33.991-8.674c-.231-.803-.44-1.614-.627-2.437"/><path clip-path="url(#b)" d="M15.16 119.997c-.141.059-.263.143-.366.243l-.01.01c-.164.163-.274.371-.319.595v.005l-.022.219.01.107.011.119.067.223c.06.146.146.271.25.375l.004.005c.164.163.372.273.596.318l.067.007.156.015.11-.01.116-.012.144-.042.077-.023 32.462-13.325c-.342-.764-.666-1.537-.965-2.323l-32.388 13.494zM25.993 139.201l-.109.105-.066.096-.062.093-.063.144-.026.062c-.047.146-.065.3-.053.452l.001.005.039.216.04.103.044.109.126.196.162.167.101.069.086.06.199.086.008.003c.146.047.3.063.452.051l.069-.012.152-.028.106-.041.106-.042.131-.084.063-.04.004-.003.003-.002 27.528-21.753c-.541-.642-1.069-1.294-1.573-1.966l-27.412 21.899-.056.055zM9.558 77.991l.069.203.003.01c.094.209.248.386.444.509l.012.006c.123.075.26.13.411.156l34.594 5.903c.115-.835.249-1.664.41-2.484l-34.618-5.718-.081-.005-.149-.009-.115.014-.11.015-.148.05-.065.022c-.208.094-.386.247-.509.443l-.003.006c-.077.125-.133.267-.159.421l-.016.233.016.119.014.106zM75.927 12.729l5.076 34.726c.822-.146 1.652-.27 2.49-.37l-5.259-34.689-.001-.004-.001-.006-.018-.072-.039-.151-.048-.103-.05-.102-.094-.128-.04-.052c-.103-.114-.227-.206-.365-.272l-.005-.001-.207-.075-.101-.015-.124-.018-.232.011-.226.057-.113.053-.093.045-.176.131-.004.003c-.113.103-.205.228-.271.366l-.023.062-.053.15-.016.107-.017.117.006.146.004.084zM30.202 37.442l-.123-.088-.105-.049-.101-.045-.154-.037-.065-.015c-.226-.031-.458.004-.666.105l-.089.055-.105.064-.171.158c-.104.117-.181.252-.231.397l-.002.01c-.045.136-.064.279-.057.425v.013c.009.146.047.286.107.415l.006.017c.065.136.157.258.272.362l.003.004.004.004.004.003 26.2 23.33c.539-.644 1.099-1.269 1.673-1.881l-26.336-23.201-.064-.046zM38.201 29.815l-.109-.104-.096-.062-.096-.06-.144-.057-.065-.025c-.147-.041-.302-.054-.454-.036l-.005.001-.214.047-.097.041-.112.049-.191.133-.162.168-.066.104-.056.088-.079.203-.003.006c-.041.148-.053.302-.035.454l.013.066.034.154.044.102.047.106.086.125.044.065 22.703 26.755c.622-.563 1.265-1.103 1.919-1.63l-22.849-26.638-.057-.055zM46.93 23.121l-.01-.009c-.19-.132-.414-.205-.642-.21h-.008l-.215.017-.106.028-.114.032-.208.105c-.132.084-.241.191-.326.311l-.004.005c-.132.19-.204.413-.209.641l.004.066.013.159.028.104.032.115.067.134.036.071 18.755 29.65c.694-.47 1.404-.918 2.126-1.349l-18.915-29.553c-.083-.128-.187-.233-.304-.317"/><path clip-path="url(#b)" d="M17.75 55.642l-.139-.049-.116-.019-.109-.015-.161.007-.063.003c-.226.033-.439.131-.611.286l-.004.004c-.11.099-.203.22-.27.361l-.079.219-.018.119-.016.107.01.208.001.016c.032.226.131.44.286.612l.01.009c.097.106.214.197.352.263l.006.003h.002l31.615 15.205c.341-.769.704-1.525 1.087-2.27l-31.705-15.041-.078-.028zM23.337 46.105l-.13-.068-.114-.034-.104-.031-.161-.015-.062-.006c-.228.001-.454.069-.645.198l-.006.004c-.122.083-.23.189-.317.32l-.108.206-.035.116-.03.102-.021.22v.004c.001.228.069.454.199.646l.008.01c.082.118.185.225.312.31l.005.003h.001l.002.001 29.192 19.458c.445-.714.911-1.411 1.395-2.096l-29.307-19.308-.074-.04zM65.182 15.271l9.857 33.675c.796-.26 1.599-.502 2.413-.718l-10.035-33.618c-.044-.146-.115-.276-.204-.389l-.008-.011c-.193-.239-.474-.392-.779-.425l-.106-.001-.121-.001-.229.043c-.15.045-.284.117-.399.209l-.006.004c-.179.146-.31.341-.377.559l-.014.066-.032.154-.002.11v.117l.027.148.015.078zM12.157 67.318c.064.219.192.417.369.566l.011.008c.111.091.24.165.385.211l.006.002.004.001 33.423 10.656c.23-.81.482-1.61.756-2.401l-33.487-10.48-.08-.017-.145-.03-.117-.001-.11-.001-.155.029-.066.013c-.219.064-.417.19-.565.367l-.004.006c-.095.113-.17.245-.217.395l-.048.228-.001.118-.001.109.041.217.001.004zM56.761 17.962l-.009-.01c-.169-.158-.381-.261-.606-.298l-.008-.001-.217-.014-.107.014-.118.016-.221.075c-.142.065-.265.155-.366.262l-.005.005c-.157.169-.26.381-.296.606l-.005.065-.01.159.014.109.016.116.047.14.026.078 14.447 31.973c.752-.369 1.513-.722 2.288-1.049l-14.614-31.889c-.063-.139-.152-.258-.256-.357"/><path clip-path="url(#b)" d="M548.182 160.679l-.055-.138-.03-.076-16.137-31.159c-.731.409-1.473.804-2.229 1.171l16.299 31.066c.071.135.166.249.276.343l.009.01c.177.148.395.239.621.265h.019l.206.003.109-.02.115-.022.216-.086c.139-.073.256-.17.351-.282l.006-.005c.147-.178.238-.394.264-.621l.001-.064.001-.16-.02-.108-.022-.117zM566.076 147.788c-.053-.141-.134-.271-.24-.383l-.003-.005-24.101-25.505-.089.094c-.563.563-1.146 1.107-1.737 1.639l24.238 25.377.004.004c.107.111.233.198.371.259l.016.006c.132.055.273.088.42.092l.013-.001c.146.003.289-.021.423-.071l.01-.003c.143-.054.275-.137.389-.245.114-.107.203-.235.265-.376l.004-.01c.056-.131.088-.271.093-.418l.001-.013c.004-.146-.021-.289-.07-.423l-.007-.018zM557.608 154.968l-.035-.104-.037-.11-.075-.131-.039-.068-20.317-28.612c-.668.507-1.348.999-2.045 1.469l20.466 28.497c.09.124.198.224.32.301l.01.009c.197.122.425.184.653.177l.007-.001.215-.028.102-.033.115-.04.201-.115c.129-.091.23-.203.31-.327l.004-.007c.122-.195.182-.423.175-.65l-.008-.063-.022-.164zM527.445 168.136l-6.924-34.402c-.813.189-1.636.357-2.467.501l7.106 34.367c.031.149.092.285.171.405l.007.012c.13.191.312.34.523.426l.013.004.202.061.108.011.119.011.231-.022c.153-.032.294-.094.415-.175l.007-.004c.19-.129.338-.312.425-.523l.019-.062.045-.152.012-.112.011-.114-.016-.151-.007-.081zM538.094 165.246l-.036-.149-.018-.074-.003-.006v-.002l-11.642-33.094c-.78.303-1.57.586-2.371.845l11.818 33.036c.052.145.13.271.225.377l.008.011c.206.229.494.366.802.384l.104-.005.122-.006.227-.056c.147-.052.276-.132.387-.23l.006-.004c.171-.154.291-.356.347-.578l.012-.066.022-.155-.004-.112-.006-.116zM578.096 131.958l.005.003.071.032.138.063.114.028.106.025.162.006.063.003c.228-.013.448-.093.634-.232l.004-.004c.118-.089.22-.202.3-.337l.097-.211.029-.119.024-.103.009-.221v-.004c-.013-.228-.093-.449-.232-.634l-.009-.01c-.088-.114-.197-.215-.329-.293l-30.192-17.871c-.406.736-.838 1.457-1.283 2.166l30.289 17.713zM589.561 87.55h-.008l-35.072.845c.044.806.069 1.618.069 2.435l-.002.081 35.074-1.031.082-.011.146-.019.111-.037.104-.035.139-.079.056-.032c.125-.089.232-.201.313-.331l.003-.004.098-.197.029-.101.032-.118.017-.232-.03-.231-.033-.105-.038-.111-.109-.191-.002-.004c-.089-.125-.201-.231-.331-.313l-.061-.031-.141-.07-.109-.031-.109-.03-.154-.011-.074-.006zM590.232 99.42l-.082-.205-.001-.004c-.071-.137-.167-.257-.284-.356l-.054-.037-.132-.091-.099-.044-.109-.046-.144-.032-.081-.018-34.864-4.046c-.069.84-.161 1.675-.277 2.502l34.869 3.858.004.001h.006l.074.001.156.002.112-.021.111-.021.146-.058.062-.025c.137-.069.258-.167.356-.283l.006-.009.122-.176.044-.101.046-.108.051-.228.003-.232-.024-.127-.017-.096zM588.261 110.435l-.052-.213-.002-.005c-.075-.216-.214-.406-.398-.546l-.011-.008c-.116-.085-.249-.151-.396-.189l-33.956-8.858c-.187.821-.396 1.635-.628 2.438l33.992 8.674.003.001.006.001.073.011.155.024.111-.005.115-.005.149-.037.068-.018c.215-.074.406-.212.545-.396l.004-.006c.089-.118.156-.254.195-.405l.035-.231-.005-.122-.003-.105zM583.243 122.173l.145.043.117.013.108.009.156-.015.068-.008c.223-.045.431-.153.595-.316l.004-.006c.104-.104.19-.23.25-.375l.067-.224.012-.119.009-.106-.021-.218-.001-.005c-.045-.226-.155-.433-.319-.597l-.01-.009c-.104-.1-.226-.185-.366-.244l-32.388-13.495c-.3.786-.623 1.562-.965 2.325l32.462 13.324.077.023zM571.713 140.968l.006.004.062.04.131.084.105.042.105.041.153.027.068.013c.152.012.307-.005.452-.052l.008-.004.198-.086.087-.059.101-.07.163-.167.126-.195.043-.109.04-.102.039-.218.001-.004c.013-.152-.005-.307-.052-.453l-.026-.062-.063-.145-.062-.092-.066-.095-.108-.107-.056-.054-27.412-21.899c-.505.673-1.032 1.324-1.573 1.966l27.528 21.753.002.003zM554.126 84.778l34.594-5.903c.151-.026.288-.081.411-.156l.012-.006c.196-.123.351-.301.444-.509l.004-.01.068-.203.014-.106.016-.119-.016-.233c-.026-.155-.082-.296-.159-.422l-.003-.005c-.123-.196-.301-.349-.509-.443l-.065-.022-.147-.05-.109-.015-.116-.014-.148.009-.081.005-34.618 5.718c.159.82.293 1.649.408 2.484"/><path clip-path="url(#b)" d="M523.294 12.645l.007-.146-.017-.117-.017-.108-.054-.149-.022-.062c-.066-.139-.157-.263-.271-.366l-.004-.003-.176-.132-.092-.044-.114-.053-.226-.058-.232-.011-.123.019-.102.015-.206.074-.006.002c-.139.065-.263.158-.365.271l-.04.053-.095.128-.049.101-.049.104-.039.151-.018.071-.001.006v.001l-.001.003-5.259 34.69c.838.099 1.668.223 2.489.369l5.076-34.725.006-.084zM570.492 39.237l.005-.004.003-.004c.115-.104.206-.226.272-.362l.006-.016c.06-.13.098-.27.106-.416l-.001-.013c.009-.146-.012-.289-.057-.424l-.002-.011c-.049-.144-.127-.279-.231-.397l-.171-.158-.104-.064-.09-.055c-.208-.1-.44-.136-.666-.105l-.064.015-.154.037-.101.045-.106.049-.123.088-.063.046-26.336 23.202c.574.611 1.135 1.236 1.674 1.88l26.2-23.33.003-.003zM562.776 31.318l.086-.125.047-.106.044-.103.034-.154.013-.064c.018-.152.006-.307-.035-.454l-.003-.007-.079-.203-.056-.087-.066-.104-.162-.168-.19-.133-.112-.049-.097-.042-.214-.046-.005-.001c-.152-.018-.308-.006-.454.036l-.065.025-.144.057-.096.06-.097.062-.109.104-.057.054-22.849 26.638c.653.527 1.297 1.067 1.919 1.629l22.703-26.755.044-.064zM553.985 24.618l.067-.134.031-.115.029-.104.012-.159.005-.065c-.006-.228-.076-.452-.209-.642l-.005-.004c-.085-.121-.193-.228-.325-.312l-.208-.105-.114-.031-.105-.029-.216-.016-.008-.001c-.229.005-.453.078-.642.211l-.012.008c-.115.084-.221.19-.303.318l-18.915 29.553c.721.431 1.431.879 2.125 1.349l18.756-29.651.037-.071zM582.389 57.776l.006-.003c.137-.066.255-.157.352-.263l.011-.009c.153-.172.254-.385.286-.611v-.017l.011-.208-.017-.106-.018-.119-.079-.219c-.068-.142-.16-.263-.27-.362l-.005-.004c-.172-.155-.386-.253-.611-.285l-.062-.004-.162-.007-.107.016-.117.018-.138.049-.078.028-31.705 15.041c.383.745.746 1.501 1.087 2.27l31.615-15.204.001-.001zM577.088 48.09l.006-.003c.127-.085.23-.192.312-.31l.009-.01c.129-.192.198-.417.198-.646v-.004l-.02-.22-.031-.102-.034-.116-.109-.206c-.086-.13-.194-.237-.316-.32l-.005-.004c-.192-.129-.417-.197-.646-.197l-.062.005-.161.016-.104.03-.114.034-.129.068-.074.039-29.308 19.309c.483.685.95 1.382 1.395 2.096l29.192-19.458.001-.001zM534.05 15.193l.028-.148-.001-.117-.001-.11-.032-.155-.015-.065c-.067-.218-.198-.414-.378-.559l-.005-.004c-.114-.092-.249-.165-.399-.209l-.229-.044-.122.001-.105.002c-.306.033-.586.186-.779.425l-.007.011c-.09.113-.161.243-.205.389l-10.035 33.618c.815.215 1.618.458 2.413.718l9.857-33.675.015-.078zM586.285 68.106l.004-.001.006-.002c.146-.046.274-.12.385-.211l.012-.008c.177-.149.305-.347.369-.566l.001-.004.04-.217v-.11l-.001-.117-.049-.228c-.047-.15-.122-.282-.217-.395l-.004-.006c-.147-.177-.346-.304-.564-.367l-.066-.013-.155-.029h-.109l-.117.002-.146.03-.08.016-33.486 10.481c.273.791.525 1.591.756 2.401l33.421-10.656zM544.348 19.206l.048-.14.016-.116.013-.109-.009-.159-.005-.065c-.037-.226-.139-.437-.296-.606l-.005-.005c-.102-.107-.225-.198-.367-.262l-.22-.075-.118-.016-.108-.014-.217.014-.007.001c-.226.037-.438.14-.606.297l-.009.011c-.104.099-.193.218-.257.357l-14.614 31.889c.776.327 1.537.68 2.289 1.049l14.447-31.973.025-.078zM60.494 90.841c-.001 5.293 1.724 10.208 4.638 14.172 2.914 3.966 7.018 7.002 11.796 8.583.814.27 1.708.131 2.402-.371.695-.502 1.106-1.308 1.106-2.164v-40.307c0-1.475-1.195-2.67-2.67-2.67-1.474 0-2.67 1.195-2.67 2.67v36.175c-2.214-1.292-4.147-3.018-5.66-5.077-2.266-3.089-3.601-6.881-3.602-11.011 0-1.475-1.195-2.67-2.67-2.67s-2.67 1.195-2.67 2.67M534.371 76.1c-3.083-4.116-7.368-7.273-12.272-8.974-.858-.297-1.802-.161-2.539.366-.739.526-1.175 1.374-1.175 2.281l.055 42.249c.001.897.432 1.739 1.16 2.264.728.525 1.663.67 2.515.388 5.006-1.655 9.304-4.835 12.357-8.99 3.052-4.153 4.859-9.302 4.858-14.846.001-5.521-1.877-10.626-4.959-14.738m-4.409 26.271c-1.585 2.158-3.611 3.968-5.934 5.321l-.043-33.536c2.291 1.366 4.315 3.168 5.908 5.296 2.409 3.224 3.841 7.141 3.843 11.384-.002 4.327-1.4 8.299-3.774 11.535"/><path clip-path="url(#b)" d="M562.603 16.038c7.521 3.452 12.546 8.472 15.726 12.693 3.176 4.216 4.475 7.619 4.49 7.665h.001c.452 1.21 1.712 1.929 2.984 1.701 1.275-.229 2.208-1.344 2.208-2.639v-21.857c0-.706-.286-1.397-.785-1.896s-1.189-.785-1.896-.785h-21.609c-1.263 0-2.349.875-2.619 2.109-.27 1.233.353 2.482 1.5 3.009m20.046.244v9.278c-2.211-2.947-5.232-6.255-9.237-9.278h9.237zM561.103 168.895c.271 1.233 1.356 2.108 2.619 2.108h21.609c.706 0 1.396-.286 1.896-.786.499-.499.785-1.188.785-1.895v-21.858c0-1.294-.933-2.41-2.208-2.638-1.272-.229-2.532.49-2.984 1.701h-.001c-.016.046-1.314 3.449-4.49 7.665-3.18 4.221-8.205 9.241-15.726 12.692-1.147.528-1.77 1.777-1.5 3.011m21.546-12.532v9.278h-9.237c4.005-3.023 7.026-6.33 9.237-9.278M36.437 13.029c-.27-1.234-1.356-2.109-2.619-2.109h-21.609c-.706 0-1.397.286-1.896.785-.499.5-.785 1.19-.785 1.896v21.857c0 1.295.933 2.411 2.208 2.639 1.272.229 2.532-.49 2.984-1.701h.001c.016-.046 1.315-3.449 4.491-7.665 3.179-4.221 8.205-9.241 15.725-12.693 1.147-.527 1.77-1.776 1.5-3.009m-21.547 12.531v-9.278h9.238c-4.005 3.023-7.027 6.331-9.238 9.278"/><path clip-path="url(#b)" d="M19.212 153.191c-3.176-4.216-4.475-7.617-4.491-7.665h-.001c-.452-1.21-1.712-1.929-2.984-1.7-1.275.229-2.208 1.344-2.208 2.639v21.857c0 .705.286 1.396.785 1.896s1.19.785 1.896.785h21.609c1.263 0 2.349-.875 2.619-2.108s-.353-2.482-1.5-3.009c-7.52-3.453-12.546-8.473-15.725-12.695m-4.322 12.45v-9.277c2.211 2.946 5.233 6.255 9.238 9.277h-9.238zM321.449 134.741c.002 5.426 1.921 10.55 5.189 14.341 3.263 3.791 7.913 6.248 13.278 6.246 1.575 0 3.211-.211 4.884-.657l-.225-.845.226.845c6.687-1.782 12.331-6.09 16.349-11.594 4.018-5.509 6.426-12.224 6.616-18.903l.009-.58c.011-5.182-2.045-9.154-5.229-11.735-3.182-2.588-7.424-3.818-11.833-3.819-2.109 0-4.26.282-6.363.841-5.915 1.575-11.601 4.659-15.847 9.035-4.243 4.372-7.037 10.073-7.055 16.758v.067zm23.336-16.112c1.247-.306 2.412-.451 3.481-.451 2.661.006 4.704.876 6.136 2.452 1.43 1.58 2.278 3.945 2.279 7.062v.11c-.023 3.804-1.251 7.614-3.405 10.7-2.155 3.089-5.219 5.446-8.924 6.424-.994.262-1.932.383-2.809.383-2.75-.008-4.931-1.165-6.508-3.135-1.571-1.971-2.496-4.79-2.501-8.039v-.029c.004-7.436 5.043-13.706 12.251-15.477l-.208-.85.208.85zM375.524 134.887c1.968 1.74 4.607 2.474 7.386 2.474 3.342-.003 6.931-1.051 10.055-2.84l-.436-.759.436.759c5.085-2.919 9.975-6.957 13.62-11.881 3.644-4.92 6.045-10.746 6.066-17.177v-22.394c.002-.79-.332-1.498-.842-1.982-.508-.487-1.188-.774-1.916-.775-.442-.001-.901.11-1.323.343-1.849 1.014-3.38 1.856-5.503 3.018-.884.484-1.437 1.408-1.438 2.419.001 8.064.001 16.13.001 24.195-.005 5.608-3.184 11.281-9.511 14.648-2.004 1.067-3.655 1.525-4.893 1.522-.67-.001-1.216-.127-1.673-.352-.68-.336-1.198-.893-1.587-1.763-.383-.867-.601-2.042-.6-3.479l-.001-22.275c.002-.787-.331-1.494-.838-1.979-.508-.487-1.19-.775-1.919-.776-.406 0-.825.092-1.22.287-1.816.895-3.314 1.608-5.377 2.562-.974.451-1.603 1.424-1.604 2.503.001 8.142.001 16.283.001 24.425-.027.409-.042.809-.042 1.195-.007 3.628 1.186 6.343 3.158 8.082M452.908 81.962c1.449-2.668 2.389-5.778 2.389-9.217-.001-2.99-.734-5.518-2.215-7.332-1.477-1.819-3.708-2.834-6.362-2.824-2.072.002-4.413.588-6.993 1.803-6.343 3.004-12.584 6.203-18.759 9.518-1.045.561-1.692 1.65-1.692 2.833 0 6.222-.001 12.444 0 18.667-.001 6.223 0 12.444 0 18.667-.002.922.386 1.742.978 2.308.591.568 1.388.904 2.233.905.503 0 1.021-.122 1.504-.379 1.425-.758 2.72-1.437 4.374-2.292 1.069-.555 1.739-1.656 1.74-2.859v-12.287c-.001-.548.311-1.059.796-1.307 1.333-.683 2.365-1.203 3.634-1.832.208-.104.427-.151.646-.151.447 0 .883.204 1.165.578 2.271 2.999 3.81 5.053 6.09 8.143.621.842 1.592 1.307 2.588 1.307.437 0 .88-.09 1.297-.275 2.169-.964 3.805-1.661 5.803-2.459 1.284-.514 2.025-1.74 2.022-2.991.001-.673-.215-1.366-.666-1.95-2.239-2.909-3.906-5.029-6.218-7.922-.216-.272-.319-.592-.32-.915.002-.416.172-.816.509-1.1 2.053-1.732 4.007-3.967 5.457-6.637m-8.633-5.352c.001 1.562-.603 3.123-1.653 4.514-1.049 1.388-2.542 2.59-4.244 3.401-2.511 1.199-4.203 2.027-6.152 3.013-.223.112-.442.159-.658.16-.377 0-.75-.155-1.021-.417-.271-.265-.439-.613-.441-1.047v-6.255c-.002-.545.313-1.062.799-1.308 3.008-1.542 4.872-2.468 8.229-4.072 1.094-.523 2.065-.76 2.818-.758.794.006 1.312.232 1.682.63.368.401.639 1.073.641 2.139M478.404 60.536c2.499 0 4.944.634 7.057 1.955.471.295 1.002.434 1.518.433.953-.001 1.873-.457 2.46-1.263.905-1.25 1.646-2.257 2.554-3.472.407-.545.606-1.191.606-1.828.003-.901-.406-1.815-1.21-2.391-3.062-2.202-6.747-3.421-10.882-3.419-1.534 0-3.13.166-4.781.508-4.354.9-8.429 3.153-11.497 6.337-3.064 3.182-5.127 7.317-5.377 11.947-.014.255-.021.504-.021.747-.001 1.824.388 3.341 1.109 4.563.63 1.07 1.507 1.897 2.518 2.516 1.772 1.084 3.939 1.574 6.203 1.844 3.392.399 7.047.294 9.888.615 1.418.156 2.622.425 3.442.845.411.208.726.446.956.716.229.271.388.574.478.974l.018.18c.003.246-.101.622-.374 1.054-.403.648-1.169 1.399-2.249 2.05-1.078.653-2.47 1.212-4.122 1.53-1.486.286-2.886.416-4.191.416-2.823 0-5.208-.606-7.094-1.556-.43-.217-.894-.322-1.348-.321-1.042-.001-2.05.546-2.604 1.504-.983 1.696-1.758 3.047-2.739 4.769-.27.473-.398.992-.398 1.502-.004 1.162.675 2.297 1.848 2.78 2.339.96 5.113 1.403 8.303 1.403 2.448 0 5.145-.261 8.089-.762 4.08-.698 8.447-2.287 11.871-4.94 1.709-1.328 3.184-2.928 4.235-4.82 1.052-1.891 1.675-4.075 1.693-6.518v-.148c.001-2.108-.37-3.873-1.054-5.337-1.194-2.572-3.334-4.131-5.739-5.061-3.613-1.4-7.918-1.547-11.43-1.918-1.751-.18-3.301-.418-4.403-.827-.551-.203-.982-.445-1.288-.713-.308-.27-.497-.553-.611-.927l-.028-.21c-.003-.237.097-.615.342-1.041.362-.641 1.029-1.375 1.912-1.994.882-.622 1.977-1.134 3.191-1.39l-.181-.856.181.856c1.042-.22 2.099-.332 3.149-.332"/></svg>