<svg xmlns="http://www.w3.org/2000/svg" viewBox="0 0 173.9 276.1" enable-background="new 0 0 173.9 276.1"><path d="M82.3 274.6l-.1-.9c-.4-2.4-1-5-1.7-7.7-1.1-4-2.5-8.4-4-12.8-2.7-7.5-5.9-15.4-9.1-22.6-3.2-7.2-6.4-13.8-8.9-18.9-2.5-5.1-4.4-8.8-5.1-10.1-.2-.3-.3-.5-.3-.5-.7-1.2-.6-2.7.1-4 .2-.3.4-.6.7-.9.7-.7 1.7-1.2 2.7-1.2h.3c1 0 3.7.1 7.8 1.4 3.4 1.1 7.9 2.9 13.1 6.1v-36.9l-22.1-23.2c-.7-.8-1.1-1.7-1.1-2.8v-15c0-1.1.4-2.1 1.2-2.9l.2-.2c1.6-1.5 4.1-1.4 5.7.1l16 16.8v-2.1l-22.1-23.1c-.7-.8-1.1-1.8-1.1-2.8v-15c0-1.1.4-2.1 1.2-2.9l.2-.2c.8-.7 1.9-1.1 2.9-1.1s2 .4 2.8 1.2l.1.1 16 16.8v-4.2l-22.1-23.1c-.7-.8-1.1-1.8-1.1-2.8v-15c0-1.1.4-2.1 1.2-2.9l.2-.2c.8-.8 1.9-1.1 2.9-1.1s2.1.4 2.8 1.2l.1.1 24.3 25.6 24.4-25.6.1-.1c.8-.8 1.8-1.2 2.8-1.2 1 0 2.1.3 2.9 1.1l.3.3.1.1c.8.8 1.2 1.8 1.2 2.9v14.5c0 1.1-.4 2.1-1.1 2.8l-22.1 23.1v4.2l15.8-16.6.1-.1c.8-.8 1.8-1.2 2.9-1.2 1 0 2.1.4 2.9 1.1l.3.3.1.1c.8.8 1.2 1.8 1.2 2.9v14.5c0 1.1-.4 2.1-1.2 2.8l-22.1 23.1v2.1l15.8-16.6.1-.1c1.6-1.6 4.1-1.6 5.7-.1l.3.3.1.1c.8.8 1.2 1.8 1.2 2.9v14.5c0 1.1-.4 2.1-1.1 2.8l-22.1 23.1v36.6c5.1-3.3 9.6-5.4 13.1-6.6 5-1.8 8.4-1.9 9.4-1.9h.4c1 0 2 .5 2.7 1.2.2.2.5.5.7.9.7 1.2.7 2.7.1 4 0 0-.1.1-.1.2-.1.1-.2.4-.5.8-.4.8-1 1.9-1.7 3.3s-1.6 3.2-2.6 5.1c-1 2-2.1 4.2-3.2 6.6-4.6 9.6-10.4 22.4-14.8 34.5-2 5.4-3.7 10.7-4.9 15.6-.5 2-.9 3.9-1.2 5.6l-.2 1-.3 1.5-.1 1-.9.5c-2.3 1.2-5 1.1-7.2-.2h-1zM31.3 102.3c.5 1.1.1 2.6-.9 3.3l-12.8 9.6c-.9.7-.8 1.2.4 1l15.8-2.3c1.2-.2 2.5.6 3 1.7l.8 2c.5 1.1.1 2.6-.9 3.3l-19.9 15.9c-.9.7-2.1.5-2.5-.6l-1-2.3c-.5-1.1 0-2.6.9-3.3l13.8-10.1c1-.7.8-1.1-.4-1l-17 2.3c-1.2.2-2.5-.6-3-1.7l-.2-.4c-.5-1.1-.1-2.6.9-3.3l13.7-10.3c.9-.7.8-1.2-.4-1l-16.8 2.7c-1.2.2-2.5-.6-3-1.7l-1-2.4c-.5-1.1.1-2.1 1.3-2.2l25.3-3c1.2-.1 2.5.6 3 1.7l.9 2.1zM32.3 67.1c-.2 1.2-1.4 1.9-2.5 1.7l-7.6-1.5c-1.2-.2-2.3.5-2.5 1.7l-1.7 9.1c-.2 1.2.5 2.3 1.7 2.5l7.6 1.5c1.2.2 1.9 1.4 1.7 2.5l-.3 1.8c-.2 1.2-1.4 1.9-2.5 1.7l-24-4.7c-1.2-.2-1.9-1.4-1.7-2.5l.3-1.8c.2-1.1 1.4-1.9 2.5-1.7l6.8 1.3c1.2.2 2.3-.5 2.5-1.7l1.8-9.1c.2-1.2-.5-2.3-1.7-2.5l-6.8-1.3c-1.2-.2-1.9-1.4-1.7-2.5l.3-1.8c.2-1.2 1.4-1.9 2.5-1.7l24 4.6c1.2.2 1.9 1.4 1.7 2.5l-.4 1.9zM23.6 50.2c-6.5-5.8-6.9-14.6-1.1-21 5.8-6.5 14.6-7.1 21.1-1.3 6.5 5.7 6.9 14.6 1.1 21.1-5.9 6.3-14.7 6.9-21.1 1.2zm15.7-17.7c-4-3.6-9.3-3.7-12.8.3-3.5 3.9-2.8 9.2 1.3 12.8 4 3.5 9.3 3.7 12.8-.2 3.5-4.1 2.7-9.4-1.3-12.9zM92.4 29.1c-1.2 0-2.4-.9-2.8-2l-4.5-15.4c-.3-1.1-.8-1.1-1.1 0l-3.4 15.6c-.3 1.2-1.4 2.1-2.6 2.2l-2.2.1c-1.2 0-2.5-.9-2.8-2l-7.7-24.2c-.4-1.1.3-2.1 1.5-2.1l2.5-.1c1.2 0 2.4.9 2.7 2l4.6 16.4c.3 1.1.8 1.1 1.1 0l3.8-16.7c.3-1.2 1.5-2.1 2.6-2.2h.5c1.2 0 2.4.9 2.8 2l4.8 16.3c.3 1.1.8 1.1 1.1 0l3.4-16.6c.2-1.2 1.4-2.1 2.6-2.2l2.6-.1c1.2 0 1.9.9 1.6 2l-6.2 24.7c-.3 1.2-1.5 2.2-2.7 2.2l-2.2.1zM108.4 32.8c-1-.6-1.4-1.9-.8-2.9l11.9-21.3c.6-1 1.9-1.4 2.9-.8l14 7.8c1 .6 1.4 1.9.8 2.9l-.5.9c-.6 1-1.9 1.4-2.9.8l-8.6-4.8c-1-.6-2.4-.2-2.9.8l-.8 1.5c-.6 1-.2 2.4.8 2.9l8.4 4.7c1 .6 1.4 1.9.8 2.9l-.5.9c-.6 1-1.9 1.4-2.9.8l-8.4-4.7c-1-.6-2.4-.2-2.9.8l-1.1 1.9c-.6 1-.2 2.4.8 2.9l8.6 4.8c1 .6 1.4 1.9.8 2.9l-.5.9c-.6 1-1.9 1.4-2.9.8l-14.1-7.4zM144.1 74c-.5-1.1-.1-2.7.8-3.5l.6-.6c.9-.8 1.2-2.4.8-3.5l-3.1-7.4c-.5-1.1-1.8-2-3-1.9h-.9c-1.2 0-2.5-.8-3-1.9l-1-2.4c-.5-1.1.1-2 1.3-2l26.4-.6c1.2 0 2.5.8 3 1.9l1.3 3.1c.5 1.1.1 2.7-.7 3.5l-19.1 18.3c-.9.8-1.9.6-2.4-.5l-1-2.5zm15.4-16.5c.9-.8.6-1.4-.6-1.4l-8.8.4c-1.2.1-1.8 1-1.3 2.1l1.8 4.3c.5 1.1 1.5 1.3 2.4.5l6.5-5.9zM143.8 99.1c.1-1.2 1.1-2.5 2.2-3l6.7-3c1.1-.5 2.1-1.8 2.2-3v-.2c.1-1.2-.8-2.2-2-2.3l-5.9-.5c-1.2-.1-2.1-1.2-2-2.3l.2-1.8c.1-1.2 1.2-2.1 2.3-2l24.3 2.1c1.2.1 2.1 1.2 2 2.3l-.8 9.1c-.1 1.2-.6 3-1.2 4.1 0 0-3.7 7.3-9.1 6.9-5.1-.4-7.5-3.8-7.9-7l-9.5 4.6c-1.1.5-1.9 0-1.8-1.2l.3-2.8zm19.5.1c2.4.2 4-1.5 4.2-4l.4-4.2c.1-1.2-.8-2.2-2-2.3l-3.4-.3c-1.2-.1-2.2.8-2.3 2l-.4 4.2c-.2 2.5 1.1 4.4 3.5 4.6zM140.5 109.6c.6-1 1.9-1.4 3-.7l20.9 12.5c1 .6 1.4 1.9.7 3l-8.2 13.7c-.6 1-1.9 1.4-3 .7l-.9-.5c-1-.6-1.4-1.9-.7-3l5.1-8.5c.6-1 .3-2.4-.7-3l-1.5-.9c-1-.6-2.4-.3-3 .7l-4.9 8.2c-.6 1-1.9 1.4-3 .7l-.9-.5c-1-.6-1.4-1.9-.7-3l4.9-8.2c.6-1 .3-2.4-.7-3l-1.9-1.1c-1-.6-2.4-.3-3 .7l-5.1 8.5c-.6 1-1.9 1.4-3 .7l-.9-.5c-1-.6-1.4-1.9-.7-3l8.2-13.5z"/></svg>